{
.appVersion = "3343";
.formatVersion = 3;
DisplayStrings = (
i
);
axes = (
{
name = "É";
tag = ECLT;
}
);
date = "2024-03-06 04:10:48 +0000";
familyName = "Éclat Serif";
fontMaster = (
{
axesValues = (
0
);
id = m002;
metricValues = (
{
over = 16;
pos = 800;
},
{
over = 16;
pos = 700;
},
{
over = 16;
pos = 500;
},
{
over = -16;
},
{
over = -16;
pos = -200;
},
{
}
);
name = A;
},
{
axesValues = (
100
);
id = m01;
metricValues = (
{
over = 16;
pos = 800;
},
{
over = 16;
pos = 700;
},
{
over = 16;
pos = 500;
},
{
over = -16;
},
{
over = -16;
pos = -200;
},
{
}
);
name = B;
}
);
glyphs = (
{
glyphname = A;
lastChange = "2024-03-07 00:52:20 +0000";
layers = (
{
layerId = m01;
shapes = (
{
closed = 1;
nodes = (
(705,34,l),
(705,0,l),
(417,0,l),
(417,35,l),
(449,35,o),
(471,38,o),
(483,45,cs),
(494,51,o),
(501,65,o),
(501,78,cs),
(501,92,o),
(498,105,o),
(495,115,cs),
(492,131,o),
(486,144,o),
(481,156,cs),
(444,254,l),
(200,254,l),
(190,229,o),
(181,205,o),
(173,185,cs),
(166,166,o),
(158,143,o),
(155,136,c),
(114,35,o),
(25,34,o),
(23,34,c),
(107,35,o),
(127,35,o),
(214,35,c),
(214,0,l),
(-6,0,l),
(-6,34,l),
(15,37,o),
(38,42,o),
(56,55,cs),
(65,62,o),
(70,67,o),
(76,76,cs),
(82,85,o),
(86,96,o),
(92,109,c),
(329,700,l),
(369,700,l),
(459,474,o),
(463,469,o),
(466,462,cs),
(503,374,o),
(453,338,o),
(415,327,c),
(325,567,l),
(218,300,l),
(530,300,l),
(575,187,l),
(640,33,o),
(488,33,o),
(488,33,cs)
);
}
);
width = 692;
},
{
layerId = m002;
shapes = (
{
closed = 1;
nodes = (
(705,34,l),
(705,0,l),
(417,0,l),
(417,35,l),
(449,35,o),
(525,35,o),
(529,35,cs),
(529,35,o),
(517,65,o),
(513,75,cs),
(507,91,o),
(503,101,o),
(499,111,cs),
(494,123,o),
(486,144,o),
(481,156,cs),
(444,254,l),
(200,254,l),
(190,229,o),
(181,205,o),
(173,185,cs),
(166,166,o),
(158,146,o),
(154,136,c),
(122,55,o),
(119,47,o),
(114,34,c),
(140,34,o),
(185,34,o),
(214,34,c),
(214,0,l),
(-6,0,l),
(-6,34,l),
(15,34,o),
(39,34,o),
(59,34,c),
(66,50,o),
(71,61,o),
(74,68,cs),
(78,77,o),
(88,100,o),
(92,109,cs),
(329,700,l),
(369,700,l),
(459,474,o),
(518,327,o),
(518,327,c),
(489,327,o),
(442,327,o),
(415,327,c),
(325,567,l),
(218,300,l),
(530,300,l),
(575,187,l),
(625,62,o),
(636,34,o),
(636,34,cs)
);
}
);
width = 692;
}
);
unicode = 65;
},
{
glyphname = B;
lastChange = "2024-03-07 01:09:47 +0000";
layers = (
{
layerId = m01;
shapes = (
{
closed = 1;
nodes = (
(102,35,l),
(102,35,o),
(234,35,o),
(234,174,c),
(234,346,l),
(275,346,ls),
(298,346,o),
(319,345,o),
(335,345,cs),
(353,345,o),
(367,344,o),
(378,342,cs),
(391,340,o),
(402,337,o),
(411,334,cs),
(421,331,o),
(429,328,o),
(439,323,cs),
(495,295,o),
(523,247,o),
(523,177,cs),
(523,83,o),
(468,35,o),
(359,35,cs)
);
},
{
closed = 1;
nodes = (
(556,332,o),
(547,337,o),
(538,342,cs),
(528,347,o),
(517,350,o),
(506,354,cs),
(497,357,o),
(484,360,o),
(469,363,cs),
(455,366,o),
(439,367,o),
(421,369,c),
(421,372,l),
(475,389,o),
(515,410,o),
(540,435,c),
(565,460,o),
(577,493,o),
(577,533,c),
(577,587,o),
(555,627,o),
(510,656,c),
(464,685,o),
(401,700,o),
(318,700,c),
(38,700,l),
(38,665,l),
(216,665,l),
(169,665,o),
(137,619,o),
(137,574,c),
(137,423,l),
(178,433,o),
(234,450,o),
(234,541,c),
(234,650,l),
(234,660,o),
(239,665,o),
(248,665,c),
(318,665,l),
(369,665,o),
(405,654,o),
(429,633,c),
(452,611,o),
(463,576,o),
(463,527,c),
(463,499,o),
(460,476,o),
(451,458,cs),
(439,436,o),
(428,427,o),
(416,417,cs),
(407,411,o),
(399,407,o),
(388,402,cs),
(373,395,o),
(349,391,o),
(331,391,cs),
(318,391,o),
(304,391,o),
(284,391,c),
(137,391,l),
(137,138,ls),
(137,117,o),
(136,99,o),
(134,87,cs),
(129,62,o),
(113,45,o),
(88,39,cs),
(73,36,o),
(61,35,o),
(38,34,c),
(38,0,l),
(356,0,l),
(382,0,o),
(405,0,o),
(425,1,c),
(442,2,o),
(460,3,o),
(475,5,c),
(489,8,o),
(501,11,o),
(512,14,c),
(523,17,o),
(534,22,o),
(544,27,c),
(576,42,o),
(602,64,o),
(620,92,cs),
(638,120,o),
(646,150,o),
(646,182,cs),
(646,238,o),
(620,286,o),
(565,325,cs)
);
}
);
width = 691;
},
{
layerId = m002;
shapes = (
{
closed = 1;
nodes = (
(234,35,l),
(234,50,o),
(234,163,o),
(234,174,c),
(234,346,l),
(275,346,ls),
(298,346,o),
(319,345,o),
(335,345,cs),
(353,345,o),
(367,344,o),
(378,342,cs),
(391,340,o),
(402,337,o),
(411,334,cs),
(421,331,o),
(429,328,o),
(439,323,cs),
(495,295,o),
(523,247,o),
(523,177,cs),
(523,83,o),
(468,35,o),
(359,35,cs)
);
},
{
closed = 1;
nodes = (
(556,332,o),
(547,337,o),
(538,342,cs),
(528,347,o),
(517,350,o),
(506,354,cs),
(497,357,o),
(484,360,o),
(469,363,cs),
(455,366,o),
(439,367,o),
(421,369,c),
(421,372,l),
(475,389,o),
(515,410,o),
(540,435,c),
(565,460,o),
(577,493,o),
(577,533,c),
(577,587,o),
(555,627,o),
(510,656,c),
(464,685,o),
(401,700,o),
(318,700,c),
(38,700,l),
(38,665,l),
(137,665,l),
(137,626,o),
(137,619,o),
(137,574,c),
(137,423,l),
(178,423,o),
(203,423,o),
(234,423,c),
(234,665,l),
(234,665,o),
(235,665,o),
(235,665,c),
(318,665,l),
(369,665,o),
(405,654,o),
(429,633,c),
(452,611,o),
(463,576,o),
(463,527,c),
(463,499,o),
(460,476,o),
(451,458,cs),
(439,436,o),
(428,427,o),
(416,417,cs),
(407,411,o),
(399,407,o),
(388,402,cs),
(373,395,o),
(349,391,o),
(331,391,cs),
(318,391,o),
(304,391,o),
(284,391,c),
(137,391,l),
(137,138,ls),
(137,117,o),
(137,81,o),
(137,69,cs),
(137,43,o),
(137,34,o),
(137,34,cs),
(119,34,o),
(67,34,o),
(38,34,c),
(38,0,l),
(356,0,l),
(382,0,o),
(405,0,o),
(425,1,c),
(442,2,o),
(460,3,o),
(475,5,c),
(489,8,o),
(501,11,o),
(512,14,c),
(523,17,o),
(534,22,o),
(544,27,c),
(576,42,o),
(602,64,o),
(620,92,cs),
(638,120,o),
(646,150,o),
(646,182,cs),
(646,238,o),
(620,286,o),
(565,325,cs)
);
}
);
width = 691;
}
);
unicode = 66;
},
{
glyphname = C;
lastChange = "2024-03-07 19:07:11 +0000";
layers = (
{
layerId = m01;
shapes = (
{
closed = 1;
nodes = (
(386,40,l),
(327,47,o),
(262,73,o),
(228,117,cs),
(187,170,o),
(168,246,o),
(168,344,c),
(168,392,o),
(172,438,o),
(183,476,cs),
(194,515,o),
(209,549,o),
(229,577,cs),
(248,604,o),
(273,625,o),
(302,640,cs),
(332,655,o),
(374,661,o),
(410,661,cs),
(465,661,o),
(510,645,o),
(548,615,cs),
(587,585,o),
(615,543,o),
(628,491,c),
(661,491,l),
(661,700,l),
(628,700,l),
(611,643,l),
(574,665,o),
(540,683,o),
(507,693,cs),
(476,703,o),
(441,708,o),
(404,708,cs),
(352,708,o),
(305,699,o),
(263,681,cs),
(220,662,o),
(184,639,o),
(152,606,cs),
(121,572,o),
(98,533,o),
(81,488,cs),
(64,443,o),
(55,392,o),
(55,338,cs),
(55,284,o),
(64,237,o),
(80,195,cs),
(96,151,o),
(118,115,o),
(147,85,cs),
(178,55,o),
(213,30,o),
(254,15,cs),
(293,-1,o),
(339,-8,o),
(386,-9,c)
);
},
{
closed = 1;
nodes = (
(622,226,l),
(619,210,o),
(612,188,o),
(605,169,cs),
(584,109,o),
(560,76,o),
(552,66,cs),
(537,47,o),
(495,8,o),
(443,-5,c),
(505,6,o),
(561,31,o),
(608,71,c),
(628,0,l),
(661,0,l),
(661,226,l)
);
}
);
width = 731;
},
{
layerId = m002;
shapes = (
{
closed = 1;
nodes = (
(386,40,l),
(327,47,o),
(262,73,o),
(228,117,cs),
(187,170,o),
(168,246,o),
(168,344,c),
(168,392,o),
(172,438,o),
(183,476,cs),
(194,515,o),
(209,549,o),
(229,577,cs),
(248,604,o),
(273,625,o),
(302,640,cs),
(332,655,o),
(374,661,o),
(410,661,cs),
(465,661,o),
(510,645,o),
(548,615,cs),
(587,585,o),
(615,543,o),
(628,491,c),
(661,491,l),
(661,700,l),
(611,700,l),
(611,643,l),
(574,665,o),
(540,683,o),
(507,693,cs),
(476,703,o),
(441,708,o),
(404,708,cs),
(352,708,o),
(305,699,o),
(263,681,cs),
(220,662,o),
(184,639,o),
(152,606,cs),
(121,572,o),
(98,533,o),
(81,488,cs),
(64,443,o),
(55,392,o),
(55,338,cs),
(55,284,o),
(64,237,o),
(80,195,cs),
(96,151,o),
(118,115,o),
(147,85,cs),
(178,55,o),
(213,30,o),
(254,15,cs),
(293,-1,o),
(339,-8,o),
(386,-9,c)
);
},
{
closed = 1;
nodes = (
(622,226,l),
(619,210,o),
(612,188,o),
(605,169,cs),
(569,67,o),
(443,40,o),
(443,40,cs),
(443,23,o),
(443,-5,o),
(443,-5,c),
(505,6,o),
(561,31,o),
(608,71,c),
(608,0,l),
(661,0,l),
(661,226,l)
);
}
);
width = 731;
}
);
unicode = 67;
},
{
glyphname = D;
lastChange = "2024-03-07 01:22:23 +0000";
layers = (
{
layerId = m01;
shapes = (
{
closed = 1;
nodes = (
(521,62,o),
(457,36,o),
(373,36,c),
(342,36,o),
(303,36,o),
(282,36,cs),
(108,36,l),
(108,36,o),
(239,36,o),
(239,175,c),
(239,650,l),
(239,659,o),
(245,666,o),
(253,666,c),
(370,666,ls),
(411,666,o),
(447,660,o),
(479,644,cs),
(511,629,o),
(538,607,o),
(561,579,cs),
(584,551,o),
(601,517,o),
(613,477,cs),
(625,436,o),
(631,390,o),
(631,337,cs),
(631,238,o),
(609,163,o),
(565,113,c)
);
},
{
closed = 1;
nodes = (
(703,527,o),
(676,565,o),
(642,599,c),
(609,631,o),
(569,655,o),
(522,674,c),
(477,691,o),
(426,700,o),
(371,700,cs),
(53,700,l),
(53,666,l),
(221,666,l),
(174,666,o),
(143,620,o),
(143,574,c),
(143,492,l),
(143,140,ls),
(143,117,o),
(142,101,o),
(139,87,cs),
(132,58,o),
(120,47,o),
(90,41,cs),
(76,38,o),
(57,36,o),
(35,35,c),
(35,1,l),
(390,1,ls),
(442,1,o),
(491,10,o),
(535,26,cs),
(579,43,o),
(617,66,o),
(649,96,cs),
(681,126,o),
(705,161,o),
(723,202,cs),
(741,243,o),
(749,289,o),
(749,339,cs),
(749,391,o),
(740,439,o),
(721,483,c)
);
}
);
width = 804;
},
{
layerId = m002;
shapes = (
{
closed = 1;
nodes = (
(521,61,o),
(457,35,o),
(373,35,c),
(342,35,o),
(268,35,o),
(247,35,cs),
(239,35,l),
(239,35,o),
(239,39,o),
(239,42,c),
(239,665,l),
(239,665,o),
(239,665,o),
(240,665,c),
(370,665,ls),
(411,665,o),
(447,659,o),
(479,643,cs),
(511,628,o),
(538,606,o),
(561,578,cs),
(584,550,o),
(601,516,o),
(613,476,cs),
(625,435,o),
(631,389,o),
(631,336,cs),
(631,237,o),
(609,162,o),
(565,112,cs)
);
},
{
closed = 1;
nodes = (
(703,526,o),
(676,564,o),
(642,598,c),
(609,630,o),
(569,654,o),
(522,673,c),
(477,690,o),
(426,699,o),
(371,699,cs),
(53,699,l),
(53,665,l),
(143,665,l),
(143,661,o),
(143,654,o),
(143,652,c),
(143,491,l),
(142,139,ls),
(142,116,o),
(142,87,o),
(142,73,cs),
(142,46,o),
(142,34,o),
(142,34,cs),
(103,34,o),
(52,34,o),
(35,34,c),
(35,0,l),
(390,0,ls),
(442,0,o),
(491,9,o),
(535,25,cs),
(579,42,o),
(617,65,o),
(649,95,cs),
(681,125,o),
(705,160,o),
(723,201,cs),
(741,242,o),
(749,288,o),
(749,338,cs),
(749,390,o),
(740,438,o),
(721,482,c)
);
}
);
width = 804;
}
);
unicode = 68;
},
{
glyphname = E;
lastChange = "2024-03-07 19:47:17 +0000";
layers = (
{
layerId = m01;
shapes = (
{
closed = 1;
nodes = (
(606,180,l),
(606,0,l),
(40,0,l),
(40,35,l),
(62,35,o),
(80,37,o),
(92,40,cs),
(118,46,o),
(132,60,o),
(137,86,cs),
(140,100,o),
(141,116,o),
(141,138,cs),
(141,384,l),
(237,384,ls),
(269,384,o),
(298,386,o),
(318,390,cs),
(341,394,o),
(359,400,o),
(372,409,cs),
(386,417,o),
(394,429,o),
(400,443,cs),
(405,456,o),
(408,471,o),
(408,490,c),
(440,490,l),
(440,241,l),
(408,241,l),
(408,259,o),
(406,275,o),
(401,288,c),
(395,301,o),
(388,313,o),
(374,322,c),
(360,330,o),
(344,337,o),
(321,341,c),
(300,346,o),
(270,348,o),
(237,348,c),
(237,174,l),
(237,36,o),
(105,36,o),
(105,36,c),
(389,36,ls),
(420,36,o),
(447,38,o),
(470,42,cs),
(492,47,o),
(511,54,o),
(526,66,cs),
(541,76,o),
(554,91,o),
(563,109,cs),
(571,127,o),
(577,163,o),
(577,180,c)
);
},
{
closed = 1;
nodes = (
(606,541,l),
(575,541,l),
(571,564,o),
(564,591,o),
(556,606,c),
(548,621,o),
(537,634,o),
(523,642,c),
(508,652,o),
(491,658,o),
(469,662,c),
(447,665,o),
(420,667,o),
(390,667,c),
(253,667,l),
(242,667,o),
(237,662,o),
(237,652,c),
(237,523,l),
(237,441,o),
(178,413,o),
(141,403,c),
(141,574,l),
(141,620,o),
(171,667,o),
(218,667,c),
(50,667,l),
(50,700,l),
(606,700,l)
);
}
);
width = 646;
},
{
layerId = m002;
shapes = (
{
closed = 1;
nodes = (
(606,180,l),
(606,0,l),
(40,0,l),
(40,35,l),
(62,35,o),
(113,35,o),
(141,35,cs),
(141,35,o),
(141,42,o),
(141,69,cs),
(141,83,o),
(141,116,o),
(141,138,cs),
(141,384,l),
(237,384,ls),
(269,384,o),
(337,384,o),
(357,384,cs),
(380,384,o),
(408,384,o),
(408,384,cs),
(408,384,o),
(408,422,o),
(408,437,cs),
(408,450,o),
(408,464,o),
(408,490,c),
(455,490,l),
(455,241,l),
(408,241,l),
(408,259,o),
(408,298,o),
(408,311,cs),
(408,325,o),
(408,348,o),
(408,348,c),
(408,348,o),
(380,348,o),
(357,348,cs),
(335,348,o),
(270,348,o),
(237,348,c),
(237,79,l),
(237,60,o),
(237,36,o),
(237,36,c),
(389,36,ls),
(420,36,o),
(467,36,o),
(490,36,cs),
(512,36,o),
(535,36,o),
(553,36,c),
(553,49,o),
(553,90,o),
(553,109,cs),
(553,128,o),
(553,163,o),
(553,180,c)
);
},
{
closed = 1;
nodes = (
(606,541,l),
(553,541,l),
(553,563,o),
(553,590,o),
(553,606,cs),
(553,622,o),
(553,667,o),
(553,667,c),
(553,667,o),
(515,667,o),
(492,667,cs),
(470,667,o),
(398,667,o),
(368,667,c),
(239,667,l),
(238,667,o),
(237,667,o),
(237,667,c),
(237,413,l),
(237,413,o),
(180,413,o),
(141,413,c),
(141,662,l),
(141,665,o),
(141,667,o),
(141,667,c),
(50,667,l),
(50,700,l),
(606,700,l)
);
}
);
width = 646;
}
);
unicode = 69;
},
{
glyphname = F;
lastChange = "2024-03-07 19:47:35 +0000";
layers = (
{
layerId = m01;
shapes = (
{
closed = 1;
nodes = (
(444,480,l),
(444,214,l),
(413,214,l),
(410,237,o),
(405,256,o),
(398,272,cs),
(392,285,o),
(382,298,o),
(369,306,cs),
(355,315,o),
(339,322,o),
(318,325,cs),
(297,328,o),
(272,329,o),
(242,329,c),
(242,161,l),
(242,35,o),
(110,35,o),
(110,35,c),
(264,35,l),
(312,35,o),
(368,35,o),
(368,35,c),
(368,0,l),
(45,0,l),
(45,35,l),
(67,36,o),
(84,37,o),
(96,40,cs),
(122,47,o),
(138,60,o),
(142,86,cs),
(144,100,o),
(145,117,o),
(145,138,cs),
(145,367,l),
(243,367,ls),
(271,367,o),
(295,369,o),
(316,372,cs),
(338,375,o),
(354,380,o),
(368,389,cs),
(382,398,o),
(392,410,o),
(399,424,cs),
(406,438,o),
(411,458,o),
(413,480,c)
);
},
{
closed = 1;
nodes = (
(588,536,l),
(558,536,l),
(555,562,o),
(550,584,o),
(542,600,cs),
(534,617,o),
(522,631,o),
(508,639,cs),
(493,649,o),
(475,656,o),
(454,660,cs),
(432,664,o),
(404,666,o),
(372,666,cs),
(243,666,l),
(242,666,o),
(242,666,o),
(242,666,c),
(242,520,l),
(242,433,o),
(185,406,o),
(145,395,c),
(145,491,l),
(145,581,ls),
(145,587,o),
(146,666,o),
(146,666,c),
(54,666,l),
(54,700,l),
(588,700,l)
);
}
);
width = 614;
},
{
layerId = m002;
shapes = (
{
closed = 1;
nodes = (
(460,480,l),
(460,214,l),
(413,214,l),
(413,237,o),
(413,283,o),
(413,299,cs),
(413,314,o),
(413,328,o),
(413,328,cs),
(413,328,o),
(350,328,o),
(328,328,cs),
(307,328,o),
(272,329,o),
(242,329,c),
(242,141,l),
(242,118,o),
(242,35,o),
(242,35,c),
(291,35,l),
(339,35,o),
(368,35,o),
(368,35,c),
(368,0,l),
(45,0,l),
(45,35,l),
(72,35,o),
(133,35,o),
(145,35,cs),
(145,35,o),
(145,51,o),
(145,79,cs),
(145,93,o),
(145,110,o),
(145,131,cs),
(145,367,l),
(243,367,ls),
(271,367,o),
(297,367,o),
(318,367,cs),
(340,367,o),
(413,367,o),
(413,367,cs),
(413,367,o),
(413,409,o),
(413,424,cs),
(413,440,o),
(413,458,o),
(413,480,c)
);
},
{
closed = 1;
nodes = (
(588,536,l),
(535,536,l),
(535,562,o),
(535,579,o),
(535,596,cs),
(535,613,o),
(535,650,o),
(535,666,cs),
(535,666,o),
(475,666,o),
(454,666,cs),
(432,666,o),
(404,666,o),
(372,666,cs),
(243,666,l),
(242,666,o),
(242,666,o),
(242,666,c),
(242,395,ls),
(242,395,o),
(197,395,o),
(145,395,c),
(145,491,l),
(145,581,ls),
(145,587,o),
(146,666,o),
(146,666,c),
(54,666,l),
(54,700,l),
(588,700,l)
);
}
);
width = 614;
}
);
unicode = 70;
},
{
glyphname = G;
lastChange = "2024-03-07 19:49:37 +0000";
layers = (
{
layerId = m01;
shapes = (
{
closed = 1;
nodes = (
(766,293,l),
(766,257,l),
(750,257,o),
(738,257,o),
(729,254,cs),
(712,249,o),
(696,235,o),
(693,218,cs),
(691,208,o),
(690,193,o),
(690,177,cs),
(690,76,l),
(679,76,o),
(669,76,o),
(660,75,cs),
(644,73,o),
(632,70,o),
(620,66,cs),
(611,63,o),
(603,60,o),
(595,56,cs),
(588,53,o),
(558,36,o),
(551,32,cs),
(528,19,o),
(506,10,o),
(479,3,cs),
(452,-4,o),
(421,-9,o),
(390,-9,cs),
(337,-9,o),
(292,-1,o),
(250,15,cs),
(209,31,o),
(174,56,o),
(145,86,cs),
(114,115,o),
(93,153,o),
(79,194,cs),
(63,237,o),
(55,285,o),
(55,338,cs),
(55,393,o),
(64,443,o),
(81,489,cs),
(97,535,o),
(122,574,o),
(151,606,cs),
(182,639,o),
(218,662,o),
(261,680,cs),
(305,698,o),
(351,708,o),
(402,708,cs),
(439,708,o),
(473,703,o),
(504,692,c),
(537,682,o),
(574,666,o),
(609,644,c),
(628,699,l),
(670,699,l),
(670,491,l),
(616,491,l),
(616,515,o),
(606,541,o),
(594,564,cs),
(583,584,o),
(562,606,o),
(545,620,cs),
(525,635,o),
(504,645,o),
(482,652,cs),
(459,658,o),
(430,661,o),
(406,661,cs),
(371,661,o),
(337,654,o),
(309,640,cs),
(278,624,o),
(254,604,o),
(235,576,cs),
(214,550,o),
(199,515,o),
(188,478,cs),
(177,437,o),
(172,393,o),
(172,343,cs),
(172,246,o),
(193,171,o),
(234,120,cs),
(274,67,o),
(329,42,o),
(410,42,cs),
(425,42,o),
(440,42,o),
(455,44,cs),
(469,46,o),
(485,49,o),
(496,53,cs),
(517,60,o),
(534,67,o),
(551,79,cs),
(567,89,o),
(581,101,o),
(588,118,cs),
(598,137,o),
(599,154,o),
(599,175,cs),
(599,228,o),
(622,256,o),
(674,256,cs),
(705,256,o),
(571,256,o),
(507,256,c),
(507,293,l)
);
}
);
width = 792;
},
{
layerId = m002;
shapes = (
{
closed = 1;
nodes = (
(766,293,l),
(766,257,l),
(750,257,o),
(699,257,o),
(690,257,c),
(690,243,o),
(690,235,o),
(690,218,cs),
(690,208,o),
(690,193,o),
(690,177,cs),
(690,76,l),
(679,76,o),
(667,76,o),
(658,76,cs),
(643,76,o),
(624,76,o),
(624,76,cs),
(624,76,o),
(606,62,o),
(597,56,cs),
(589,50,o),
(569,39,o),
(554,31,cs),
(531,19,o),
(506,10,o),
(479,3,cs),
(452,-4,o),
(421,-9,o),
(390,-9,cs),
(337,-9,o),
(292,-1,o),
(250,15,cs),
(209,31,o),
(174,56,o),
(145,86,cs),
(114,115,o),
(93,153,o),
(79,194,cs),
(63,237,o),
(55,285,o),
(55,338,cs),
(55,393,o),
(64,443,o),
(81,489,cs),
(97,535,o),
(122,574,o),
(151,606,cs),
(182,639,o),
(218,662,o),
(261,680,cs),
(305,698,o),
(351,708,o),
(402,708,cs),
(439,708,o),
(473,703,o),
(504,692,c),
(537,682,o),
(574,666,o),
(609,644,c),
(609,699,l),
(670,699,l),
(670,491,l),
(616,491,l),
(616,515,o),
(606,541,o),
(594,564,cs),
(583,584,o),
(562,606,o),
(545,620,cs),
(525,635,o),
(504,645,o),
(482,652,cs),
(459,658,o),
(430,661,o),
(406,661,cs),
(371,661,o),
(337,654,o),
(309,640,cs),
(278,624,o),
(254,604,o),
(235,576,cs),
(214,550,o),
(199,515,o),
(188,478,cs),
(177,437,o),
(172,393,o),
(172,343,cs),
(172,246,o),
(193,171,o),
(234,120,cs),
(274,67,o),
(329,42,o),
(410,42,cs),
(425,42,o),
(440,42,o),
(455,44,cs),
(468,45,o),
(485,49,o),
(496,53,cs),
(518,61,o),
(533,68,o),
(551,79,cs),
(579,97,o),
(599,116,o),
(599,116,cs),
(599,137,o),
(599,154,o),
(599,175,cs),
(599,228,o),
(599,228,o),
(599,256,c),
(587,256,o),
(571,256,o),
(507,256,c),
(507,293,l)
);
}
);
width = 792;
}
);
unicode = 71;
},
{
glyphname = H;
lastChange = "2024-03-07 06:12:19 +0000";
layers = (
{
layerId = m01;
shapes = (
{
closed = 1;
nodes = (
(789,33,l),
(789,0,l),
(504,0,l),
(504,35,l),
(525,36,o),
(542,37,o),
(555,40,cs),
(568,44,o),
(578,49,o),
(585,56,cs),
(593,63,o),
(597,73,o),
(600,87,cs),
(601,100,o),
(603,117,o),
(603,140,c),
(603,336,l),
(236,336,l),
(236,163,l),
(236,34,o),
(106,35,o),
(106,35,c),
(326,35,l),
(326,0,l),
(41,0,l),
(41,35,l),
(63,36,o),
(79,36,o),
(93,40,cs),
(106,43,o),
(115,48,o),
(123,56,cs),
(131,62,o),
(135,73,o),
(138,87,cs),
(140,100,o),
(141,117,o),
(141,140,cs),
(141,382,l),
(700,382,l),
(700,163,l),
(700,33,o),
(574,33,o),
(574,33,c)
);
},
{
closed = 1;
nodes = (
(789,700,l),
(789,666,l),
(769,665,o),
(755,664,o),
(743,661,cs),
(730,658,o),
(721,651,o),
(716,644,cs),
(709,636,o),
(704,626,o),
(702,611,cs),
(700,597,o),
(700,579,o),
(700,556,c),
(700,531,ls),
(700,445,o),
(642,419,o),
(603,409,c),
(603,562,l),
(603,569,o),
(603,575,o),
(603,584,c),
(603,627,o),
(637,665,o),
(681,665,c),
(576,665,l),
(573,665,o),
(518,665,o),
(513,665,c),
(513,700,l)
);
},
{
closed = 1;
nodes = (
(326,700,l),
(326,666,l),
(307,665,o),
(292,664,o),
(279,661,cs),
(268,658,o),
(259,651,o),
(252,644,cs),
(245,637,o),
(242,626,o),
(240,611,cs),
(238,597,o),
(236,585,o),
(236,556,cs),
(236,539,l),
(236,448,o),
(180,420,o),
(141,409,c),
(141,491,l),
(141,496,o),
(141,574,o),
(141,580,c),
(141,627,o),
(170,665,o),
(217,665,c),
(103,665,l),
(99,665,o),
(54,665,o),
(50,665,c),
(50,700,l)
);
}
);
width = 830;
},
{
layerId = m002;
shapes = (
{
closed = 1;
nodes = (
(789,33,l),
(789,0,l),
(504,0,l),
(504,35,l),
(526,35,o),
(542,35,o),
(555,35,cs),
(568,35,o),
(603,35,o),
(603,35,cs),
(603,43,o),
(603,72,o),
(603,87,cs),
(603,100,o),
(603,117,o),
(603,140,c),
(603,336,l),
(236,336,l),
(236,163,l),
(236,34,o),
(236,34,o),
(236,34,c),
(326,34,l),
(326,0,l),
(41,0,l),
(41,35,l),
(63,35,o),
(79,35,o),
(93,35,cs),
(107,35,o),
(141,35,o),
(141,35,cs),
(141,43,o),
(141,73,o),
(141,87,cs),
(141,100,o),
(141,117,o),
(141,140,cs),
(141,382,l),
(700,382,l),
(700,163,l),
(700,33,o),
(700,33,o),
(700,33,c)
);
},
{
closed = 1;
nodes = (
(790,700,l),
(790,666,l),
(776,666,o),
(755,666,o),
(742,666,cs),
(731,666,o),
(712,666,o),
(700,666,cs),
(700,666,o),
(700,626,o),
(700,611,cs),
(700,597,o),
(700,585,o),
(700,556,cs),
(700,409,l),
(700,409,o),
(657,409,o),
(605,409,c),
(605,491,l),
(605,496,o),
(605,621,o),
(605,627,c),
(605,641,o),
(605,646,o),
(605,665,c),
(567,665,l),
(563,665,o),
(518,665,o),
(514,665,c),
(514,700,l)
);
},
{
closed = 1;
nodes = (
(327,700,l),
(327,665,l),
(307,665,o),
(292,665,o),
(280,665,cs),
(267,665,o),
(247,665,o),
(238,665,cs),
(238,665,o),
(238,628,o),
(238,611,cs),
(238,597,o),
(238,579,o),
(238,556,c),
(238,409,ls),
(238,409,o),
(183,409,o),
(141,409,c),
(141,562,l),
(141,569,o),
(141,586,o),
(141,595,c),
(141,612,o),
(141,635,o),
(141,665,c),
(100,665,ls),
(67,665,o),
(56,665,o),
(51,665,c),
(51,700,l)
);
}
);
width = 831;
}
);
unicode = 72;
},
{
glyphname = I;
lastChange = "2024-03-07 06:14:51 +0000";
layers = (
{
layerId = m01;
shapes = (
{
closed = 1;
nodes = (
(227,287,l),
(227,245,o),
(227,181,o),
(227,160,c),
(227,33,o),
(98,33,o),
(98,33,c),
(317,33,l),
(317,0,l),
(42,0,l),
(42,35,l),
(52,35,o),
(70,37,o),
(84,41,cs),
(99,46,o),
(107,51,o),
(113,60,cs),
(121,70,o),
(127,82,o),
(130,100,cs),
(132,117,o),
(133,129,o),
(133,165,c),
(133,516,l),
(133,519,o),
(133,541,o),
(133,546,cs),
(133,617,o),
(180,665,o),
(226,665,c),
(94,665,l),
(90,665,o),
(45,665,o),
(42,665,c),
(42,700,l),
(317,700,l),
(317,666,l),
(297,665,o),
(282,662,o),
(270,658,cs),
(259,654,o),
(250,645,o),
(244,636,cs),
(237,627,o),
(233,613,o),
(230,595,cs),
(227,578,o),
(227,556,o),
(227,528,cs)
);
}
);
width = 360;
},
{
layerId = m002;
shapes = (
{
closed = 1;
nodes = (
(227,287,l),
(227,245,o),
(227,181,o),
(227,160,c),
(227,33,o),
(227,33,o),
(227,33,c),
(317,33,l),
(317,0,l),
(42,0,l),
(42,35,l),
(52,35,o),
(70,34,o),
(84,34,cs),
(101,34,o),
(132,33,o),
(132,33,cs),
(132,47,o),
(132,82,o),
(132,100,cs),
(132,117,o),
(132,129,o),
(132,165,c),
(133,516,l),
(133,519,o),
(133,541,o),
(133,546,cs),
(133,617,o),
(133,642,o),
(133,665,c),
(94,665,l),
(90,665,o),
(45,665,o),
(42,665,c),
(42,700,l),
(317,700,l),
(317,666,l),
(298,666,o),
(282,666,o),
(270,666,cs),
(259,666,o),
(227,666,o),
(227,666,cs),
(227,653,o),
(227,615,o),
(227,595,cs),
(227,578,o),
(227,556,o),
(227,528,cs)
);
}
);
width = 360;
}
);
unicode = 73;
},
{
glyphname = J;
lastChange = "2024-03-07 20:17:57 +0000";
layers = (
{
layerId = m01;
shapes = (
{
closed = 1;
nodes = (
(84,-207,o),
(130,-189,o),
(162,-150,cs),
(192,-113,o),
(209,-55,o),
(209,18,cs),
(209,561,ls),
(209,582,o),
(209,601,o),
(211,613,cs),
(216,634,o),
(229,654,o),
(249,661,cs),
(260,665,o),
(277,668,o),
(296,668,c),
(296,700,l),
(26,700,l),
(26,668,l),
(189,668,l),
(189,668,o),
(116,642,o),
(116,579,cs),
(116,-18,ls),
(116,-64,o),
(108,-102,o),
(96,-127,cs),
(86,-148,o),
(70,-169,o),
(37,-176,cs),
(23,-179,o),
(-21,-183,o),
(-57,-171,c),
(-26,-171,o),
(-2,-146,o),
(-2,-117,cs),
(-2,-105,o),
(-6,-95,o),
(-12,-86,cs),
(-22,-73,o),
(-38,-65,o),
(-56,-65,cs),
(-73,-65,o),
(-88,-72,o),
(-98,-84,cs),
(-106,-93,o),
(-110,-104,o),
(-110,-117,cs),
(-110,-194,o),
(-16,-207,o),
(24,-207,cs)
);
}
);
width = 341;
},
{
layerId = m002;
shapes = (
{
closed = 1;
nodes = (
(84,-207,o),
(130,-189,o),
(162,-150,cs),
(192,-113,o),
(209,-55,o),
(209,18,cs),
(209,561,ls),
(209,582,o),
(209,668,o),
(209,668,cs),
(209,668,o),
(229,668,o),
(249,668,cs),
(260,668,o),
(277,668,o),
(296,668,c),
(296,700,l),
(26,700,l),
(26,668,l),
(116,668,l),
(116,668,o),
(116,642,o),
(116,579,cs),
(116,-18,ls),
(116,-64,o),
(108,-102,o),
(96,-127,cs),
(86,-148,o),
(70,-170,o),
(37,-176,cs),
(7,-181,o),
(-35,-164,o),
(-35,-117,c),
(-21,-117,o),
(-2,-117,o),
(-2,-117,cs),
(-2,-104,o),
(-2,-65,o),
(-2,-65,cs),
(-20,-65,o),
(-39,-65,o),
(-56,-65,cs),
(-73,-65,o),
(-110,-65,o),
(-110,-65,cs),
(-110,-65,o),
(-110,-83,o),
(-110,-117,cs),
(-110,-189,o),
(-16,-207,o),
(24,-207,cs)
);
}
);
width = 341;
}
);
unicode = 74;
},
{
glyphname = K;
lastChange = "2024-03-07 15:17:51 +0000";
layers = (
{
layerId = m01;
shapes = (
{
closed = 1;
nodes = (
(720,35,l),
(720,0,l),
(443,0,l),
(443,35,l),
(467,35,o),
(482,35,o),
(493,39,cs),
(503,43,o),
(510,51,o),
(510,59,cs),
(510,64,o),
(507,70,o),
(503,78,cs),
(498,88,o),
(488,100,o),
(478,114,c),
(327,300,l),
(270,369,l),
(465,603,ls),
(479,619,o),
(484,630,o),
(484,640,cs),
(484,657,o),
(467,665,o),
(432,665,c),
(432,700,l),
(671,700,l),
(671,665,l),
(660,665,o),
(627,665,o),
(619,663,cs),
(609,661,o),
(600,659,o),
(592,654,cs),
(584,649,o),
(573,641,o),
(565,633,cs),
(558,627,o),
(543,612,o),
(530,597,cs),
(360,400,l),
(517,212,o),
(518,211,o),
(522,206,cs),
(633,70,o),
(508,35,o),
(508,35,c)
);
},
{
closed = 1;
nodes = (
(337,35,l),
(337,0,l),
(42,0,l),
(42,35,l),
(64,35,o),
(82,36,o),
(95,38,cs),
(108,41,o),
(116,46,o),
(124,54,cs),
(133,63,o),
(137,72,o),
(139,85,cs),
(142,100,o),
(142,117,o),
(142,138,c),
(142,532,l),
(142,537,o),
(142,570,o),
(142,578,c),
(142,624,o),
(174,665,o),
(221,665,c),
(123,665,l),
(120,665,o),
(57,665,o),
(52,665,c),
(52,700,l),
(327,700,l),
(327,665,l),
(310,665,o),
(295,664,o),
(283,661,cs),
(274,659,o),
(263,654,o),
(256,646,cs),
(248,637,o),
(245,628,o),
(242,613,cs),
(239,598,o),
(239,580,o),
(239,554,cs),
(239,166,ls),
(239,35,o),
(108,35,o),
(108,35,c)
);
}
);
width = 700;
},
{
layerId = m002;
shapes = (
{
closed = 1;
nodes = (
(720,35,l),
(720,0,l),
(443,0,l),
(443,35,l),
(467,35,o),
(535,35,o),
(546,35,cs),
(546,35,o),
(539,43,o),
(528,55,cs),
(527,56,o),
(520,64,o),
(509,77,cs),
(503,84,o),
(489,101,o),
(478,114,cs),
(327,300,l),
(270,369,l),
(465,603,ls),
(479,619,o),
(517,665,o),
(517,665,cs),
(501,665,o),
(467,665,o),
(432,665,c),
(432,700,l),
(671,700,l),
(671,665,l),
(660,665,o),
(627,665,o),
(619,665,cs),
(609,665,o),
(599,665,o),
(591,665,cs),
(591,665,o),
(571,643,o),
(563,634,cs),
(557,627,o),
(543,612,o),
(530,597,cs),
(360,400,l),
(517,212,o),
(518,211,o),
(522,206,cs),
(633,70,o),
(660,35,o),
(660,35,c)
);
},
{
closed = 1;
nodes = (
(337,35,l),
(337,0,l),
(42,0,l),
(42,35,l),
(64,35,o),
(86,35,o),
(99,35,cs),
(112,35,o),
(142,35,o),
(142,35,cs),
(142,55,o),
(142,70,o),
(142,85,cs),
(142,100,o),
(142,117,o),
(142,138,c),
(142,532,l),
(142,537,o),
(142,570,o),
(142,578,cs),
(142,624,o),
(142,649,o),
(142,665,c),
(123,665,l),
(120,665,o),
(57,665,o),
(52,665,c),
(52,700,l),
(327,700,l),
(327,664,l),
(310,664,o),
(292,664,o),
(280,664,cs),
(269,664,o),
(257,664,o),
(239,664,cs),
(239,664,o),
(239,638,o),
(239,622,cs),
(239,607,o),
(239,580,o),
(239,554,cs),
(239,166,ls),
(239,35,o),
(239,35,o),
(239,35,c)
);
}
);
width = 700;
}
);
unicode = 75;
},
{
glyphname = L;
lastChange = "2024-03-07 06:32:50 +0000";
layers = (
{
layerId = m01;
shapes = (
{
closed = 1;
nodes = (
(639,178,l),
(639,0,l),
(45,0,l),
(45,34,l),
(67,35,o),
(84,37,o),
(96,40,cs),
(110,44,o),
(120,48,o),
(128,56,cs),
(134,63,o),
(139,73,o),
(142,87,cs),
(144,99,o),
(145,117,o),
(145,138,cs),
(145,480,l),
(145,485,o),
(145,570,o),
(145,576,c),
(145,622,o),
(176,665,o),
(223,665,c),
(54,665,l),
(54,700,l),
(330,700,l),
(330,665,l),
(311,665,o),
(296,662,o),
(284,659,cs),
(273,656,o),
(264,651,o),
(257,643,cs),
(250,635,o),
(246,625,o),
(243,610,cs),
(241,596,o),
(240,578,o),
(240,555,cs),
(240,172,l),
(240,34,o),
(110,34,o),
(110,34,c),
(303,34,l),
(315,34,o),
(390,34,o),
(403,34,c),
(437,34,o),
(466,34,o),
(490,38,cs),
(513,42,o),
(533,50,o),
(550,60,cs),
(565,70,o),
(578,83,o),
(588,102,cs),
(597,119,o),
(605,151,o),
(611,178,c)
);
}
);
width = 660;
},
{
layerId = m002;
shapes = (
{
closed = 1;
nodes = (
(639,178,l),
(639,0,l),
(45,0,l),
(45,34,l),
(67,34,o),
(78,34,o),
(90,34,cs),
(105,34,o),
(120,34,o),
(145,34,c),
(145,49,o),
(145,73,o),
(145,87,cs),
(145,99,o),
(145,117,o),
(145,138,cs),
(145,480,l),
(145,485,o),
(145,570,o),
(145,576,c),
(145,647,o),
(145,665,o),
(145,665,cs),
(54,665,l),
(54,700,l),
(330,700,l),
(330,665,l),
(311,665,o),
(300,665,o),
(288,665,cs),
(276,665,o),
(269,665,o),
(260,665,cs),
(249,665,o),
(240,665,o),
(240,665,cs),
(240,638,o),
(240,578,o),
(240,555,cs),
(240,138,l),
(240,45,o),
(240,34,o),
(240,34,c),
(303,34,l),
(315,34,o),
(390,34,o),
(403,34,c),
(437,34,o),
(470,34,o),
(494,34,cs),
(517,34,o),
(590,34,o),
(590,34,cs),
(590,49,o),
(590,82,o),
(590,102,cs),
(590,121,o),
(590,148,o),
(590,178,c)
);
}
);
width = 660;
}
);
unicode = 76;
},
{
glyphname = M;
lastChange = "2024-03-07 06:35:49 +0000";
layers = (
{
layerId = m01;
shapes = (
{
closed = 1;
nodes = (
(933,35,l),
(933,0,l),
(653,0,l),
(653,35,l),
(677,36,o),
(693,37,o),
(705,40,cs),
(735,48,o),
(746,67,o),
(750,98,cs),
(752,115,o),
(755,136,o),
(755,166,cs),
(755,587,l),
(744,587,l),
(480,-8,l),
(460,-8,l),
(199,587,l),
(196,587,l),
(196,218,l),
(196,213,o),
(196,166,o),
(196,161,cs),
(196,41,o),
(112,35,o),
(112,35,c),
(278,35,l),
(278,0,l),
(40,0,l),
(40,35,l),
(61,36,o),
(78,37,o),
(91,40,cs),
(122,50,o),
(132,68,o),
(138,98,cs),
(140,115,o),
(141,136,o),
(141,166,cs),
(141,621,l),
(141,643,o),
(153,666,o),
(184,666,c),
(103,666,l),
(101,666,o),
(52,666,o),
(49,666,c),
(49,700,l),
(267,700,l),
(497,164,l),
(500,164,l),
(736,700,l),
(941,700,l),
(941,666,l),
(921,666,o),
(906,664,o),
(894,659,cs),
(883,654,o),
(874,648,o),
(868,636,cs),
(862,628,o),
(856,613,o),
(854,594,cs),
(852,578,o),
(852,554,o),
(852,529,c),
(852,167,ls),
(852,35,o),
(719,35,o),
(719,35,c)
);
}
);
width = 981;
},
{
layerId = m002;
shapes = (
{
closed = 1;
nodes = (
(933,35,l),
(933,0,l),
(653,0,l),
(653,35,l),
(677,35,o),
(693,35,o),
(705,35,cs),
(735,35,o),
(755,35,o),
(755,35,cs),
(755,58,o),
(755,136,o),
(755,166,cs),
(755,587,l),
(744,587,l),
(480,-8,l),
(460,-8,l),
(199,587,l),
(196,587,l),
(196,218,l),
(196,213,o),
(196,166,o),
(196,161,cs),
(196,41,o),
(196,35,o),
(196,35,c),
(278,35,l),
(278,0,l),
(40,0,l),
(40,35,l),
(66,35,o),
(127,35,o),
(140,35,c),
(140,56,o),
(140,61,o),
(140,94,cs),
(140,111,o),
(140,136,o),
(140,166,cs),
(141,621,l),
(141,643,o),
(141,653,o),
(141,666,c),
(103,666,l),
(101,666,o),
(52,666,o),
(49,666,c),
(49,700,l),
(267,700,l),
(497,164,l),
(500,164,l),
(736,700,l),
(941,700,l),
(941,666,l),
(921,666,o),
(906,666,o),
(894,666,cs),
(882,666,o),
(871,666,o),
(852,666,c),
(852,657,o),
(852,614,o),
(852,594,cs),
(852,578,o),
(852,554,o),
(852,529,c),
(852,167,ls),
(852,35,o),
(852,35,o),
(852,35,c)
);
}
);
width = 981;
}
);
unicode = 77;
},
{
glyphname = N;
lastChange = "2024-03-07 07:03:20 +0000";
layers = (
{
layerId = m01;
shapes = (
{
closed = 1;
nodes = (
(788,700,l),
(788,665,l),
(766,665,o),
(750,662,o),
(737,659,cs),
(724,656,o),
(713,650,o),
(706,640,cs),
(701,632,o),
(694,618,o),
(692,602,cs),
(689,585,o),
(688,562,o),
(688,535,c),
(688,-9,l),
(633,-9,l),
(202,560,l),
(198,560,l),
(198,171,l),
(198,41,o),
(115,35,o),
(115,35,c),
(288,35,l),
(288,0,l),
(43,0,l),
(43,35,l),
(65,35,o),
(83,38,o),
(94,41,cs),
(124,49,o),
(136,67,o),
(140,98,cs),
(142,114,o),
(143,137,o),
(143,165,c),
(143,535,l),
(143,542,o),
(143,548,o),
(143,555,c),
(143,616,o),
(164,665,o),
(228,665,c),
(52,665,l),
(52,700,l),
(232,700,l),
(629,170,l),
(633,170,l),
(633,528,l),
(633,539,o),
(633,547,o),
(633,560,c),
(633,614,o),
(673,665,o),
(716,665,c),
(544,665,l),
(544,700,l)
);
}
);
width = 823;
},
{
layerId = m002;
shapes = (
{
closed = 1;
nodes = (
(788,700,l),
(788,665,l),
(766,665,o),
(748,665,o),
(735,665,cs),
(722,665,o),
(695,665,o),
(688,665,cs),
(688,665,o),
(688,618,o),
(688,602,cs),
(688,585,o),
(688,562,o),
(688,535,c),
(688,-9,l),
(633,-9,l),
(202,560,l),
(198,560,l),
(198,171,l),
(198,41,o),
(198,35,o),
(198,35,c),
(288,35,l),
(288,0,l),
(43,0,l),
(43,35,l),
(65,35,o),
(154,35,o),
(143,35,cs),
(143,35,o),
(143,67,o),
(143,98,cs),
(143,114,o),
(143,137,o),
(143,165,c),
(143,535,l),
(143,542,o),
(143,548,o),
(143,555,c),
(143,616,o),
(142,665,o),
(142,665,c),
(52,665,l),
(52,700,l),
(232,700,l),
(629,170,l),
(633,170,l),
(633,528,l),
(633,539,o),
(633,547,o),
(633,560,c),
(633,614,o),
(633,637,o),
(633,665,c),
(544,665,l),
(544,700,l)
);
}
);
width = 823;
}
);
unicode = 78;
},
{
glyphname = O;
lastChange = "2024-03-07 21:28:01 +0000";
layers = (
{
layerId = m01;
shapes = (
{
closed = 1;
nodes = (
(256,77,o),
(173,157,o),
(173,302,cs),
(173,319,o),
(173,348,o),
(175,367,cs),
(176,404,o),
(183,438,o),
(191,467,c),
(203,509,o),
(222,543,o),
(244,571,c),
(266,597,o),
(294,620,o),
(327,634,cs),
(359,649,o),
(395,657,o),
(435,657,c),
(435,707,l),
(381,707,o),
(331,698,o),
(285,680,cs),
(238,661,o),
(197,634,o),
(163,601,c),
(130,569,o),
(103,529,o),
(84,484,c),
(65,439,o),
(55,392,o),
(55,339,c),
(55,288,o),
(65,244,o),
(85,199,c),
(104,157,o),
(132,121,o),
(163,88,c),
(205,47,o),
(246,27,o),
(294,10,cs),
(305,6,o),
(333,0,o),
(341,0,c),
(341,0,o),
(313,20,o),
(296,37,cs)
);
},
{
closed = 1;
nodes = (
(763,531,o),
(736,571,o),
(705,602,cs),
(671,635,o),
(630,661,o),
(583,680,c),
(559,688,o),
(536,696,o),
(512,700,c),
(549,686,o),
(583,658,o),
(583,658,cs),
(651,607,o),
(695,484,o),
(695,363,cs),
(695,344,ls),
(695,296,o),
(692,262,o),
(677,216,c),
(665,180,o),
(646,149,o),
(624,122,c),
(601,96,o),
(574,76,o),
(542,62,cs),
(512,48,o),
(475,41,o),
(435,41,c),
(435,-9,l),
(489,-9,o),
(537,0,o),
(583,18,cs),
(629,37,o),
(670,62,o),
(704,95,c),
(734,128,o),
(763,164,o),
(781,205,c),
(801,249,o),
(811,293,o),
(811,344,c),
(811,395,o),
(801,442,o),
(782,487,c)
);
}
);
width = 866;
},
{
layerId = m002;
shapes = (
{
closed = 1;
nodes = (
(287,59,o),
(173,136,o),
(173,302,cs),
(173,319,o),
(173,348,o),
(175,367,cs),
(176,404,o),
(183,438,o),
(191,467,c),
(203,509,o),
(222,543,o),
(244,571,c),
(266,597,o),
(294,620,o),
(327,634,cs),
(359,649,o),
(395,657,o),
(435,657,c),
(435,707,l),
(381,707,o),
(331,698,o),
(285,680,cs),
(238,661,o),
(197,634,o),
(163,601,c),
(130,569,o),
(103,529,o),
(84,484,c),
(65,439,o),
(55,392,o),
(55,339,c),
(55,288,o),
(65,244,o),
(85,199,c),
(104,157,o),
(132,121,o),
(163,88,c),
(198,54,o),
(255,22,o),
(308,7,cs),
(319,4,o),
(331,1,o),
(343,0,c),
(343,18,o),
(343,29,o),
(343,41,c)
);
},
{
closed = 1;
nodes = (
(763,531,o),
(736,571,o),
(705,602,cs),
(671,635,o),
(630,661,o),
(583,680,c),
(559,688,o),
(536,696,o),
(512,700,c),
(512,675,o),
(512,657,o),
(512,657,cs),
(586,629,o),
(695,543,o),
(695,363,cs),
(695,344,ls),
(695,296,o),
(692,262,o),
(677,216,c),
(665,180,o),
(646,149,o),
(624,122,c),
(601,96,o),
(574,76,o),
(542,62,cs),
(512,48,o),
(475,41,o),
(435,41,c),
(435,-9,l),
(489,-9,o),
(537,0,o),
(583,18,cs),
(629,37,o),
(670,62,o),
(704,95,c),
(734,128,o),
(763,164,o),
(781,205,c),
(801,249,o),
(811,293,o),
(811,344,c),
(811,395,o),
(801,442,o),
(782,487,c)
);
}
);
width = 866;
}
);
unicode = 79;
},
{
glyphname = P;
lastChange = "2024-03-08 16:52:13 +0000";
layers = (
{
layerId = m01;
shapes = (
{
closed = 1;
nodes = (
(410,375,o),
(365,364,o),
(305,364,cs),
(241,364,l),
(241,649,ls),
(241,661,o),
(245,666,o),
(256,666,cs),
(340,666,ls),
(390,666,o),
(427,655,o),
(449,631,cs),
(473,609,o),
(484,571,o),
(484,519,cs),
(484,463,o),
(469,423,o),
(441,400,cs)
);
},
{
closed = 1;
nodes = (
(488,685,o),
(424,700,o),
(340,700,cs),
(53,700,l),
(53,666,l),
(83,666,l),
(219,666,ls),
(177,666,o),
(146,636,o),
(146,578,cs),
(146,514,l),
(146,137,ls),
(146,110,o),
(146,99,o),
(142,85,cs),
(136,64,o),
(122,46,o),
(97,39,cs),
(83,35,o),
(54,33,o),
(45,33,c),
(45,0,l),
(366,0,l),
(366,33,l),
(108,33,l),
(108,33,o),
(241,33,o),
(241,173,cs),
(241,318,l),
(323,318,ls),
(373,318,o),
(417,324,o),
(452,332,cs),
(488,342,o),
(517,356,o),
(539,374,cs),
(560,391,o),
(577,414,o),
(588,438,cs),
(598,464,o),
(602,492,o),
(602,525,cs),
(602,579,o),
(580,624,o),
(535,654,cs)
);
}
);
width = 629;
},
{
layerId = m002;
shapes = (
{
closed = 1;
nodes = (
(410,375,o),
(365,364,o),
(305,364,cs),
(241,364,l),
(241,666,ls),
(241,666,o),
(243,666,o),
(245,666,cs),
(340,666,ls),
(390,666,o),
(427,655,o),
(449,631,cs),
(473,609,o),
(484,571,o),
(484,519,cs),
(484,463,o),
(469,423,o),
(441,400,cs)
);
},
{
closed = 1;
nodes = (
(488,685,o),
(424,700,o),
(340,700,cs),
(53,700,l),
(53,666,l),
(83,666,l),
(146,666,ls),
(146,666,o),
(146,636,o),
(146,578,cs),
(146,514,l),
(146,137,ls),
(146,110,o),
(146,87,o),
(146,72,cs),
(146,44,o),
(146,33,o),
(146,33,cs),
(131,33,o),
(54,33,o),
(45,33,c),
(45,0,l),
(366,0,l),
(366,33,l),
(241,33,l),
(241,77,o),
(241,33,o),
(241,173,cs),
(241,318,l),
(323,318,ls),
(373,318,o),
(417,324,o),
(452,332,cs),
(488,342,o),
(517,356,o),
(539,374,cs),
(560,391,o),
(577,414,o),
(588,438,cs),
(598,464,o),
(602,492,o),
(602,525,cs),
(602,579,o),
(580,624,o),
(535,654,cs)
);
}
);
width = 629;
}
);
unicode = 80;
},
{
glyphname = Q;
lastChange = "2024-03-07 20:08:26 +0000";
layers = (
{
layerId = m01;
shapes = (
{
closed = 1;
nodes = (
(868,-86,l),
(845,-86,l),
(834,-117,o),
(823,-138,o),
(807,-151,cs),
(792,-164,o),
(772,-169,o),
(741,-169,cs),
(716,-169,o),
(691,-165,o),
(669,-159,cs),
(647,-151,o),
(623,-144,o),
(600,-135,cs),
(576,-126,o),
(554,-119,o),
(528,-110,cs),
(497,-101,o),
(465,-98,o),
(416,-98,c),
(431,-88,o),
(445,-79,o),
(460,-73,cs),
(476,-66,o),
(492,-59,o),
(510,-52,cs),
(545,-38,o),
(580,-24,o),
(613,-8,cs),
(645,8,o),
(672,27,o),
(699,50,cs),
(739,84,o),
(770,126,o),
(794,174,cs),
(818,222,o),
(831,275,o),
(831,334,cs),
(831,386,o),
(822,436,o),
(802,480,cs),
(780,528,o),
(755,567,o),
(720,601,cs),
(684,636,o),
(643,660,o),
(596,679,cs),
(548,699,o),
(497,708,o),
(442,708,cs),
(388,708,o),
(336,699,o),
(289,679,cs),
(242,660,o),
(200,635,o),
(166,601,cs),
(131,566,o),
(104,527,o),
(84,480,cs),
(64,433,o),
(53,384,o),
(53,332,cs),
(53,281,o),
(62,231,o),
(82,186,cs),
(93,161,o),
(105,135,o),
(122,114,cs),
(200,7,o),
(347,13,o),
(353,13,c),
(353,13,o),
(338,19,o),
(331,23,cs),
(299,39,o),
(271,59,o),
(247,88,cs),
(224,117,o),
(208,153,o),
(195,194,cs),
(182,234,o),
(175,281,o),
(175,332,cs),
(175,381,o),
(182,425,o),
(195,467,cs),
(208,506,o),
(224,540,o),
(247,568,cs),
(271,597,o),
(298,620,o),
(331,635,cs),
(364,651,o),
(400,659,o),
(442,659,cs),
(483,659,o),
(521,649,o),
(553,635,cs),
(587,618,o),
(614,597,o),
(637,568,cs),
(660,540,o),
(678,506,o),
(691,467,cs),
(704,425,o),
(709,381,o),
(709,332,cs),
(709,281,o),
(704,234,o),
(691,194,cs),
(683,169,o),
(663,127,o),
(654,114,cs),
(587,17,o),
(481,-8,o),
(418,-47,c),
(296,-115,ls),
(282,-123,o),
(273,-130,o),
(265,-135,cs),
(257,-141,o),
(237,-159,o),
(237,-172,cs),
(237,-186,o),
(246,-196,o),
(263,-196,cs),
(271,-196,o),
(283,-194,o),
(290,-187,c),
(298,-181,o),
(305,-174,o),
(313,-166,cs),
(321,-157,o),
(330,-150,o),
(340,-144,cs),
(351,-137,o),
(364,-135,o),
(380,-135,cs),
(402,-135,o),
(423,-142,o),
(451,-153,cs),
(477,-163,o),
(496,-172,o),
(524,-185,cs),
(552,-198,o),
(582,-214,o),
(611,-227,cs),
(642,-241,o),
(673,-247,o),
(707,-247,cs),
(730,-247,o),
(752,-243,o),
(772,-237,cs),
(792,-230,o),
(807,-220,o),
(823,-208,cs),
(854,-185,o),
(868,-151,o),
(868,-126,cs),
(868,-106,l)
);
}
);
width = 880;
},
{
layerId = m002;
shapes = (
{
closed = 1;
nodes = (
(868,-86,l),
(845,-86,l),
(834,-117,o),
(823,-138,o),
(807,-151,cs),
(792,-164,o),
(772,-169,o),
(741,-169,cs),
(716,-169,o),
(691,-165,o),
(669,-159,cs),
(647,-151,o),
(623,-144,o),
(600,-135,cs),
(576,-126,o),
(554,-119,o),
(528,-110,cs),
(497,-101,o),
(465,-98,o),
(416,-98,c),
(431,-88,o),
(445,-79,o),
(460,-73,cs),
(476,-66,o),
(492,-59,o),
(510,-52,cs),
(545,-38,o),
(580,-24,o),
(613,-8,cs),
(645,8,o),
(672,27,o),
(699,50,cs),
(739,84,o),
(770,126,o),
(794,174,cs),
(818,222,o),
(831,275,o),
(831,334,cs),
(831,386,o),
(822,436,o),
(802,480,cs),
(780,528,o),
(755,567,o),
(720,601,cs),
(684,636,o),
(643,660,o),
(596,679,cs),
(548,699,o),
(497,708,o),
(442,708,cs),
(388,708,o),
(336,699,o),
(289,679,cs),
(242,660,o),
(200,635,o),
(166,601,cs),
(131,566,o),
(104,527,o),
(84,480,cs),
(64,433,o),
(53,384,o),
(53,332,cs),
(53,281,o),
(62,231,o),
(82,186,cs),
(93,161,o),
(105,135,o),
(122,114,cs),
(200,7,o),
(347,13,o),
(353,13,c),
(353,13,o),
(353,57,o),
(353,57,cs),
(324,60,o),
(275,72,o),
(247,100,cs),
(220,127,o),
(208,153,o),
(195,194,cs),
(182,234,o),
(175,281,o),
(175,332,cs),
(175,381,o),
(182,425,o),
(195,467,cs),
(208,506,o),
(224,540,o),
(247,568,cs),
(271,597,o),
(299,618,o),
(331,635,c),
(365,649,o),
(400,659,o),
(442,659,cs),
(483,659,o),
(521,649,o),
(553,635,cs),
(587,618,o),
(614,597,o),
(637,568,cs),
(660,540,o),
(678,506,o),
(691,467,cs),
(704,425,o),
(709,381,o),
(709,332,cs),
(709,281,o),
(704,234,o),
(691,194,cs),
(683,169,o),
(663,127,o),
(654,114,cs),
(587,17,o),
(481,-8,o),
(418,-47,c),
(296,-115,ls),
(282,-123,o),
(273,-130,o),
(265,-135,cs),
(257,-141,o),
(237,-159,o),
(237,-172,cs),
(237,-186,o),
(246,-196,o),
(263,-196,cs),
(271,-196,o),
(283,-194,o),
(290,-187,cs),
(298,-181,o),
(305,-174,o),
(313,-166,cs),
(321,-157,o),
(330,-150,o),
(340,-144,cs),
(351,-137,o),
(364,-135,o),
(380,-135,cs),
(402,-135,o),
(423,-142,o),
(451,-153,cs),
(477,-163,o),
(496,-172,o),
(524,-185,cs),
(552,-198,o),
(582,-214,o),
(611,-227,cs),
(642,-241,o),
(673,-247,o),
(707,-247,cs),
(730,-247,o),
(752,-243,o),
(772,-237,cs),
(792,-230,o),
(807,-220,o),
(823,-208,cs),
(854,-185,o),
(868,-151,o),
(868,-126,cs),
(868,-106,l)
);
}
);
width = 880;
}
);
unicode = 81;
},
{
glyphname = R;
lastChange = "2024-03-07 20:34:58 +0000";
layers = (
{
layerId = m01;
shapes = (
{
closed = 1;
nodes = (
(714,34,l),
(714,0,l),
(453,0,l),
(453,34,l),
(490,34,l),
(497,34,o),
(532,42,o),
(503,82,c),
(503,82,o),
(502,83,o),
(502,83,c),
(344,286,ls),
(336,296,o),
(327,304,o),
(321,309,cs),
(307,321,o),
(291,329,o),
(273,331,cs),
(263,332,o),
(252,332,o),
(237,332,c),
(237,173,l),
(237,34,o),
(107,34,o),
(107,34,c),
(319,34,l),
(319,0,l),
(42,0,l),
(42,35,l),
(63,36,o),
(80,37,o),
(94,40,c),
(107,43,o),
(117,48,o),
(124,55,c),
(131,63,o),
(136,73,o),
(139,87,c),
(141,99,o),
(142,117,o),
(142,138,c),
(142,378,l),
(302,378,l),
(363,378,o),
(408,389,o),
(437,411,c),
(467,435,o),
(481,472,o),
(481,524,c),
(481,575,o),
(469,611,o),
(445,632,c),
(423,654,o),
(387,665,o),
(337,665,c),
(253,665,l),
(243,665,o),
(237,659,o),
(237,648,c),
(237,530,l),
(234,447,o),
(179,416,o),
(142,407,c),
(142,584,l),
(142,625,o),
(166,666,o),
(205,666,c),
(51,666,l),
(51,700,l),
(337,700,l),
(421,700,o),
(485,684,o),
(531,654,c),
(577,624,o),
(599,580,o),
(599,525,c),
(599,476,o),
(584,436,o),
(556,403,c),
(527,371,o),
(480,350,o),
(417,339,c),
(538,192,l),
(585,137,o),
(575,95,o),
(566,80,cs),
(554,60,o),
(536,43,o),
(526,34,c)
);
}
);
width = 692;
},
{
layerId = m002;
shapes = (
{
closed = 1;
nodes = (
(714,34,l),
(714,0,l),
(453,0,l),
(453,34,l),
(540,34,l),
(540,34,o),
(539,35,o),
(508,75,c),
(508,75,o),
(502,83,o),
(502,83,c),
(344,286,ls),
(336,296,o),
(315,322,o),
(307,332,cs),
(307,332,o),
(306,332,o),
(305,332,cs),
(295,332,o),
(252,332,o),
(237,332,c),
(237,173,l),
(237,34,o),
(237,34,o),
(237,34,c),
(319,34,l),
(319,0,l),
(42,0,l),
(42,35,l),
(63,35,o),
(79,35,o),
(93,35,cs),
(106,35,o),
(124,35,o),
(142,35,c),
(142,49,o),
(142,68,o),
(142,84,cs),
(142,96,o),
(142,117,o),
(142,138,c),
(142,378,l),
(302,378,l),
(363,378,o),
(408,389,o),
(437,411,c),
(467,435,o),
(481,472,o),
(481,524,c),
(481,575,o),
(469,611,o),
(445,632,c),
(423,654,o),
(387,665,o),
(337,665,c),
(238,665,l),
(237,665,o),
(237,665,o),
(237,665,c),
(237,407,ls),
(237,407,o),
(187,407,o),
(142,407,c),
(142,584,l),
(142,625,o),
(142,651,o),
(142,666,c),
(51,666,l),
(51,700,l),
(337,700,l),
(421,700,o),
(485,684,o),
(531,654,c),
(577,624,o),
(599,580,o),
(599,525,c),
(599,476,o),
(584,436,o),
(556,403,c),
(527,371,o),
(480,350,o),
(417,339,c),
(538,192,l),
(579,144,o),
(612,105,o),
(624,91,cs),
(629,85,o),
(671,34,o),
(671,34,c)
);
}
);
width = 692;
}
);
unicode = 82;
},
{
glyphname = S;
lastChange = "2024-03-07 20:22:45 +0000";
layers = (
{
layerId = m01;
shapes = (
{
closed = 1;
nodes = (
(101,164,o),
(93,187,o),
(88,215,c),
(54,215,l),
(54,11,l),
(89,11,l),
(115,57,l),
(141,34,o),
(172,16,o),
(199,7,cs),
(225,-3,o),
(255,-8,o),
(270,-8,c),
(243,3,o),
(232,10,o),
(209,27,cs),
(151,70,o),
(121,123,o),
(113,142,c)
);
},
{
closed = 1;
nodes = (
(517,281,o),
(506,298,o),
(489,316,cs),
(471,333,o),
(450,351,o),
(418,367,cs),
(390,384,o),
(352,404,o),
(308,424,cs),
(281,434,o),
(261,446,o),
(242,456,cs),
(224,467,o),
(210,478,o),
(201,489,c),
(189,498,o),
(181,510,o),
(177,522,cs),
(172,533,o),
(170,547,o),
(170,561,cs),
(170,591,o),
(180,616,o),
(202,634,cs),
(222,652,o),
(254,661,o),
(289,661,cs),
(327,661,o),
(362,649,o),
(389,625,cs),
(415,601,o),
(437,563,o),
(452,515,c),
(485,515,l),
(486,694,l),
(454,694,l),
(429,654,l),
(407,673,o),
(384,686,o),
(361,694,cs),
(336,703,o),
(313,708,o),
(286,708,cs),
(258,708,o),
(229,703,o),
(205,693,cs),
(181,683,o),
(159,671,o),
(140,654,cs),
(123,636,o),
(109,616,o),
(99,592,cs),
(89,568,o),
(84,544,o),
(84,516,cs),
(84,491,o),
(87,471,o),
(94,453,c),
(99,434,o),
(110,418,o),
(126,401,cs),
(140,383,o),
(162,368,o),
(187,354,cs),
(211,339,o),
(242,324,o),
(280,307,cs),
(311,293,o),
(336,281,o),
(357,269,cs),
(377,258,o),
(393,247,o),
(405,236,c),
(416,223,o),
(425,211,o),
(430,197,cs),
(436,185,o),
(440,172,o),
(440,157,cs),
(440,120,o),
(425,91,o),
(400,71,cs),
(377,53,o),
(348,43,o),
(311,41,c),
(311,-7,l),
(338,-6,o),
(367,0,o),
(390,7,cs),
(420,17,o),
(448,32,o),
(469,51,cs),
(489,68,o),
(506,90,o),
(517,114,cs),
(531,141,o),
(538,169,o),
(538,197,cs),
(538,222,o),
(534,244,o),
(525,262,cs)
);
}
);
width = 584;
},
{
layerId = m002;
shapes = (
{
closed = 1;
nodes = (
(101,164,o),
(93,187,o),
(88,215,c),
(54,215,l),
(54,11,l),
(115,11,l),
(115,57,l),
(141,34,o),
(170,14,o),
(197,5,cs),
(223,-5,o),
(253,-8,o),
(272,-8,c),
(272,5,o),
(272,13,o),
(272,41,c),
(171,41,o),
(121,123,o),
(113,142,c)
);
},
{
closed = 1;
nodes = (
(517,281,o),
(506,298,o),
(489,316,cs),
(471,333,o),
(450,351,o),
(418,367,cs),
(390,384,o),
(352,404,o),
(308,424,cs),
(281,434,o),
(261,446,o),
(242,456,cs),
(224,467,o),
(210,478,o),
(201,489,c),
(189,498,o),
(181,510,o),
(177,522,cs),
(172,533,o),
(170,547,o),
(170,561,cs),
(170,591,o),
(180,616,o),
(202,634,cs),
(222,652,o),
(254,661,o),
(289,661,cs),
(327,661,o),
(362,649,o),
(389,625,cs),
(415,601,o),
(437,563,o),
(452,515,c),
(484,515,l),
(485,694,l),
(429,694,l),
(429,654,l),
(407,673,o),
(384,686,o),
(361,694,cs),
(336,703,o),
(313,708,o),
(286,708,cs),
(258,708,o),
(229,703,o),
(205,693,cs),
(181,683,o),
(159,671,o),
(140,654,cs),
(123,636,o),
(109,616,o),
(99,592,cs),
(89,568,o),
(84,544,o),
(84,516,cs),
(84,491,o),
(87,471,o),
(94,453,c),
(99,434,o),
(110,418,o),
(126,401,cs),
(140,383,o),
(162,368,o),
(187,354,cs),
(211,339,o),
(242,324,o),
(280,307,cs),
(311,293,o),
(336,281,o),
(357,269,cs),
(377,258,o),
(393,247,o),
(405,236,c),
(416,223,o),
(425,211,o),
(430,197,cs),
(436,185,o),
(440,172,o),
(440,157,cs),
(440,120,o),
(425,91,o),
(400,71,cs),
(377,53,o),
(348,43,o),
(311,41,c),
(311,-7,l),
(338,-6,o),
(367,0,o),
(390,7,cs),
(420,17,o),
(448,32,o),
(469,51,cs),
(489,68,o),
(506,90,o),
(517,114,cs),
(531,141,o),
(538,169,o),
(538,197,cs),
(538,222,o),
(534,244,o),
(525,262,cs)
);
}
);
width = 584;
}
);
unicode = 83;
},
{
glyphname = T;
lastChange = "2024-03-07 15:35:17 +0000";
layers = (
{
layerId = m01;
shapes = (
{
closed = 1;
nodes = (
(714,526,l),
(679,526,l),
(677,552,o),
(674,574,o),
(667,591,cs),
(660,609,o),
(651,624,o),
(638,633,cs),
(626,642,o),
(610,650,o),
(591,654,cs),
(573,658,o),
(551,660,o),
(524,660,cs),
(508,660,l),
(422,660,l),
(422,160,l),
(422,34,o),
(291,34,o),
(291,34,c),
(539,34,l),
(539,0,l),
(195,0,l),
(195,35,l),
(220,35,o),
(242,38,o),
(258,43,cs),
(287,50,o),
(303,66,o),
(309,96,cs),
(311,110,o),
(313,127,o),
(313,147,cs),
(313,512,l),
(313,574,ls),
(313,633,o),
(376,660,o),
(376,660,cs),
(238,660,ls),
(234,660,o),
(229,660,o),
(224,660,cs),
(217,660,ls),
(196,660,o),
(176,659,o),
(159,658,cs),
(138,656,o),
(121,650,o),
(106,641,cs),
(91,633,o),
(79,620,o),
(70,602,cs),
(61,584,o),
(57,558,o),
(56,526,c),
(21,526,l),
(21,700,l),
(714,700,l)
);
}
);
width = 734;
},
{
layerId = m002;
shapes = (
{
closed = 1;
nodes = (
(714,526,l),
(660,526,l),
(660,552,o),
(660,573,o),
(660,591,cs),
(660,609,o),
(660,636,o),
(660,660,cs),
(660,660,o),
(641,660,o),
(632,660,cs),
(614,660,o),
(560,660,o),
(533,660,cs),
(517,660,l),
(422,660,l),
(422,160,l),
(422,34,o),
(422,34,o),
(422,34,c),
(539,34,l),
(539,0,l),
(195,0,l),
(195,35,l),
(220,35,o),
(296,35,o),
(313,35,cs),
(313,35,o),
(313,61,o),
(313,91,cs),
(313,105,o),
(313,127,o),
(313,147,cs),
(313,512,l),
(313,574,ls),
(313,633,o),
(313,660,o),
(313,660,cs),
(238,660,ls),
(234,660,o),
(229,660,o),
(224,660,cs),
(217,660,ls),
(196,660,o),
(170,660,o),
(153,660,cs),
(132,660,o),
(76,660,o),
(76,660,cs),
(76,660,o),
(76,622,o),
(76,604,cs),
(76,585,o),
(76,550,o),
(76,526,c),
(21,526,l),
(21,700,l),
(714,700,l)
);
}
);
width = 734;
}
);
unicode = 84;
},
{
glyphname = U;
lastChange = "2024-03-07 07:00:02 +0000";
layers = (
{
layerId = m01;
shapes = (
{
closed = 1;
nodes = (
(505,700,l),
(505,665,l),
(517,665,l),
(662,665,ls),
(639,665,o),
(593,630,o),
(593,570,cs),
(593,248,ls),
(593,182,o),
(577,132,o),
(548,98,cs),
(516,64,o),
(471,49,o),
(410,49,cs),
(376,49,o),
(349,53,o),
(324,61,cs),
(302,69,o),
(283,82,o),
(269,98,cs),
(255,115,o),
(243,136,o),
(236,159,cs),
(230,185,o),
(227,211,o),
(227,243,cs),
(227,489,ls),
(227,533,o),
(228,567,o),
(230,591,cs),
(234,624,o),
(244,654,o),
(277,662,cs),
(290,664,o),
(307,665,o),
(326,665,c),
(326,700,l),
(29,700,l),
(29,665,l),
(43,665,l),
(196,665,ls),
(149,665,o),
(119,618,o),
(119,574,c),
(119,489,l),
(119,249,ls),
(119,201,o),
(124,160,o),
(135,129,cs),
(145,95,o),
(163,69,o),
(185,49,cs),
(207,27,o),
(234,14,o),
(269,5,cs),
(302,-3,o),
(340,-8,o),
(386,-8,cs),
(434,-8,o),
(472,-2,o),
(505,11,cs),
(540,22,o),
(567,42,o),
(588,66,cs),
(608,89,o),
(624,120,o),
(633,156,cs),
(642,194,o),
(646,236,o),
(646,283,cs),
(646,465,ls),
(646,517,o),
(648,548,o),
(648,575,cs),
(648,606,o),
(665,654,o),
(698,660,cs),
(712,664,o),
(728,665,o),
(746,665,c),
(746,700,l)
);
}
);
width = 775;
},
{
layerId = m002;
shapes = (
{
closed = 1;
nodes = (
(505,700,l),
(505,665,l),
(517,665,l),
(593,665,ls),
(593,665,o),
(593,630,o),
(593,570,cs),
(593,248,ls),
(593,182,o),
(577,132,o),
(548,98,cs),
(516,64,o),
(471,49,o),
(410,49,cs),
(376,49,o),
(349,53,o),
(324,61,cs),
(302,69,o),
(283,82,o),
(269,98,cs),
(255,115,o),
(243,136,o),
(236,159,cs),
(230,185,o),
(227,211,o),
(227,243,cs),
(227,489,ls),
(227,533,o),
(227,567,o),
(227,591,cs),
(227,623,o),
(227,665,o),
(227,665,cs),
(242,665,o),
(302,665,o),
(326,665,c),
(326,700,l),
(29,700,l),
(29,665,l),
(43,665,l),
(119,665,ls),
(119,665,o),
(119,618,o),
(119,574,c),
(119,489,l),
(119,249,ls),
(119,201,o),
(124,160,o),
(135,129,cs),
(145,95,o),
(163,69,o),
(185,49,cs),
(207,27,o),
(234,14,o),
(269,5,cs),
(302,-3,o),
(340,-8,o),
(386,-8,cs),
(434,-8,o),
(472,-2,o),
(505,11,cs),
(540,22,o),
(567,42,o),
(588,66,cs),
(608,89,o),
(624,120,o),
(633,156,cs),
(642,194,o),
(646,236,o),
(646,283,cs),
(647,465,ls),
(647,517,o),
(647,548,o),
(647,575,cs),
(647,606,o),
(647,646,o),
(647,665,c),
(660,665,o),
(698,665,o),
(746,665,c),
(746,700,l)
);
}
);
width = 775;
}
);
unicode = 85;
},
{
glyphname = V;
lastChange = "2024-03-07 06:47:01 +0000";
layers = (
{
layerId = m01;
shapes = (
{
closed = 1;
nodes = (
(717,700,l),
(717,666,l),
(702,665,o),
(689,661,o),
(681,658,cs),
(662,652,o),
(646,641,o),
(635,625,cs),
(629,616,o),
(623,604,o),
(618,591,cs),
(373,-7,l),
(340,-7,l),
(116,534,l),
(116,535,l),
(78,627,o),
(202,665,o),
(202,665,cs),
(-7,665,l),
(-13,665,l),
(-13,700,l),
(282,700,l),
(282,665,l),
(261,665,o),
(231,663,o),
(217,656,c),
(205,647,o),
(200,638,o),
(200,626,cs),
(200,618,o),
(201,608,o),
(204,596,cs),
(207,587,o),
(213,570,o),
(222,548,cs),
(382,142,l),
(542,534,ls),
(548,549,o),
(551,556,o),
(553,564,cs),
(589,654,o),
(659,666,o),
(659,666,cs),
(506,666,l),
(496,666,l),
(496,700,l)
);
}
);
width = 709;
},
{
layerId = m002;
shapes = (
{
closed = 1;
nodes = (
(717,700,l),
(717,666,l),
(702,666,o),
(661,666,o),
(650,666,cs),
(650,666,o),
(642,648,o),
(635,632,cs),
(631,622,o),
(623,604,o),
(618,591,cs),
(373,-7,l),
(340,-7,l),
(116,534,l),
(116,535,l),
(78,627,o),
(63,665,o),
(63,665,cs),
(-7,665,l),
(-13,665,l),
(-13,700,l),
(282,700,l),
(282,665,l),
(261,665,o),
(231,665,o),
(217,665,cs),
(203,665,o),
(192,665,o),
(178,665,cs),
(178,665,o),
(196,613,o),
(201,601,cs),
(205,592,o),
(213,570,o),
(222,548,cs),
(382,142,l),
(542,534,ls),
(548,549,o),
(551,556,o),
(553,564,cs),
(589,654,o),
(594,666,o),
(594,666,cs),
(506,666,l),
(496,666,l),
(496,700,l)
);
}
);
width = 709;
}
);
unicode = 86;
},
{
glyphname = W;
lastChange = "2024-03-07 06:57:49 +0000";
layers = (
{
layerId = m01;
shapes = (
{
closed = 1;
nodes = (
(1046,700,l),
(1046,666,l),
(1018,666,o),
(997,660,o),
(982,647,cs),
(969,636,o),
(956,618,o),
(946,591,cs),
(718,-7,l),
(688,-7,l),
(513,508,l),
(320,-7,l),
(289,-7,l),
(100,512,ls),
(95,526,o),
(91,536,o),
(86,550,cs),
(53,644,o),
(178,665,o),
(178,665,cs),
(0,665,l),
(-11,665,l),
(-11,700,l),
(257,700,l),
(257,665,l),
(228,665,o),
(205,662,o),
(193,657,cs),
(181,650,o),
(174,639,o),
(174,625,cs),
(174,617,o),
(175,608,o),
(178,597,cs),
(181,587,o),
(185,575,o),
(189,562,cs),
(326,141,l),
(438,455,ls),
(446,479,o),
(454,501,o),
(462,521,cs),
(469,539,l),
(484,575,ls),
(495,600,o),
(528,665,o),
(581,665,c),
(400,665,l),
(393,665,l),
(393,700,l),
(671,700,l),
(671,665,l),
(652,665,o),
(638,664,o),
(627,663,cs),
(613,662,o),
(596,658,o),
(591,644,cs),
(585,630,o),
(590,610,o),
(593,594,cs),
(596,582,o),
(601,566,o),
(607,545,cs),
(728,139,l),
(870,532,l),
(879,557,ls),
(918,666,o),
(986,666,o),
(986,666,cs),
(834,666,l),
(825,666,l),
(825,700,l)
);
}
);
width = 1038;
},
{
layerId = m002;
shapes = (
{
closed = 1;
nodes = (
(1046,700,l),
(1046,666,l),
(1018,666,o),
(991,666,o),
(974,666,cs),
(974,666,o),
(956,618,o),
(946,591,cs),
(718,-7,l),
(688,-7,l),
(513,508,l),
(320,-7,l),
(289,-7,l),
(100,512,ls),
(95,526,o),
(90,542,o),
(86,553,cs),
(65,613,o),
(55,646,o),
(49,665,c),
(0,665,l),
(-11,665,l),
(-11,700,l),
(257,700,l),
(257,665,l),
(228,665,o),
(206,665,o),
(192,665,cs),
(179,665,o),
(170,665,o),
(158,665,c),
(160,657,o),
(175,608,o),
(178,597,cs),
(181,587,o),
(185,575,o),
(189,562,cs),
(326,141,l),
(438,455,ls),
(447,480,o),
(451,490,o),
(464,524,cs),
(473,548,l),
(485,578,ls),
(495,602,o),
(520,665,o),
(520,665,cs),
(400,665,l),
(393,665,l),
(393,700,l),
(671,700,l),
(671,665,l),
(652,665,o),
(638,665,o),
(627,665,cs),
(613,665,o),
(593,665,o),
(585,665,c),
(582,660,o),
(580,655,o),
(577,650,c),
(580,638,o),
(601,566,o),
(607,545,cs),
(728,139,l),
(870,532,l),
(879,557,ls),
(906,632,o),
(919,666,o),
(919,666,cs),
(834,666,l),
(825,666,l),
(825,700,l)
);
}
);
width = 1038;
}
);
unicode = 87;
},
{
glyphname = X;
lastChange = "2024-03-07 20:28:56 +0000";
layers = (
{
layerId = m01;
shapes = (
{
closed = 1;
nodes = (
(589,665,ls),
(589,665,o),
(505,628,o),
(450,550,cs),
(440,536,l),
(368,430,l),
(341,468,l),
(268,570,ls),
(250,596,o),
(241,615,o),
(241,631,cs),
(241,654,o),
(261,666,o),
(303,666,c),
(303,700,l),
(0,700,l),
(0,665,l),
(233,665,ls),
(233,665,o),
(106,606,o),
(161,536,cs),
(304,354,l),
(148,126,ls),
(136,108,o),
(123,94,o),
(112,82,cs),
(102,70,o),
(91,61,o),
(79,54,cs),
(68,47,o),
(56,42,o),
(44,39,cs),
(31,36,o),
(18,34,o),
(2,34,c),
(2,0,l),
(280,0,l),
(280,34,l),
(64,34,l),
(64,34,o),
(155,35,o),
(221,132,cs),
(297,246,o),
(269,207,o),
(339,307,c),
(448,156,ls),
(459,140,o),
(467,127,o),
(473,117,cs),
(480,108,o),
(485,100,o),
(489,93,cs),
(492,87,o),
(495,81,o),
(496,76,cs),
(499,65,o),
(499,50,o),
(481,42,cs),
(470,37,o),
(450,34,o),
(421,34,c),
(421,0,l),
(725,0,l),
(725,34,l),
(535,34,l),
(535,34,o),
(637,90,o),
(560,188,c),
(560,188,o),
(560,189,o),
(559,189,c),
(448,329,l),
(443,335,l),
(403,386,l),
(527,570,ls),
(541,591,o),
(554,607,o),
(564,620,cs),
(575,633,o),
(585,642,o),
(593,649,cs),
(603,656,o),
(613,660,o),
(626,662,cs),
(636,665,o),
(711,666,o),
(727,666,c),
(727,700,l),
(418,700,l),
(418,666,l)
);
}
);
width = 727;
},
{
layerId = m002;
shapes = (
{
closed = 1;
nodes = (
(531,665,ls),
(531,665,o),
(505,628,o),
(450,550,cs),
(440,536,l),
(368,430,l),
(341,468,l),
(270,570,ls),
(252,596,o),
(216,648,o),
(205,665,cs),
(205,665,o),
(261,665,o),
(303,665,c),
(303,700,l),
(0,700,l),
(0,665,l),
(59,665,ls),
(59,665,o),
(106,606,o),
(161,536,cs),
(304,354,l),
(148,126,ls),
(137,111,o),
(119,86,o),
(110,73,cs),
(100,59,o),
(81,34,o),
(81,34,cs),
(69,34,o),
(47,34,o),
(35,34,cs),
(22,34,o),
(18,34,o),
(2,34,c),
(2,0,l),
(280,0,l),
(280,34,l),
(153,34,l),
(153,34,o),
(155,37,o),
(221,132,cs),
(299,245,o),
(317,271,o),
(340,304,c),
(448,156,ls),
(459,140,o),
(467,129,o),
(474,119,cs),
(483,106,o),
(488,99,o),
(492,93,cs),
(496,87,o),
(508,69,o),
(510,66,cs),
(522,48,o),
(532,34,o),
(532,34,cs),
(510,34,o),
(451,34,o),
(421,34,c),
(421,0,l),
(725,0,l),
(725,34,l),
(682,34,l),
(682,34,o),
(637,90,o),
(560,188,c),
(560,188,o),
(560,189,o),
(559,189,c),
(448,329,l),
(443,335,l),
(403,386,l),
(527,570,ls),
(541,591,o),
(551,606,o),
(561,619,cs),
(572,634,o),
(582,649,o),
(594,665,cs),
(594,665,o),
(613,665,o),
(626,665,cs),
(636,665,o),
(711,666,o),
(727,666,c),
(727,700,l),
(418,700,l),
(418,666,l)
);
}
);
width = 727;
}
);
unicode = 88;
},
{
glyphname = Y;
lastChange = "2024-03-08 12:12:09 +0000";
layers = (
{
layerId = m01;
shapes = (
{
closed = 1;
nodes = (
(664,700,l),
(664,666,l),
(651,666,o),
(640,665,o),
(630,660,cs),
(620,656,o),
(610,649,o),
(599,638,c),
(588,628,o),
(577,612,o),
(563,593,c),
(550,573,o),
(534,548,o),
(515,516,c),
(375,281,l),
(375,117,ls),
(375,36,o),
(260,35,o),
(253,35,c),
(463,35,l),
(466,35,o),
(470,35,o),
(474,35,c),
(474,0,l),
(180,0,l),
(180,35,l),
(201,35,o),
(219,36,o),
(232,40,c),
(245,43,o),
(255,49,o),
(262,59,cs),
(269,68,o),
(274,81,o),
(276,98,cs),
(278,115,o),
(280,138,o),
(280,165,c),
(280,276,l),
(133,528,l),
(129,535,ls),
(125,542,o),
(107,576,o),
(111,608,c),
(113,625,o),
(127,666,o),
(185,666,c),
(10,666,l),
(10,700,l),
(276,700,l),
(276,666,l),
(246,666,o),
(224,663,o),
(212,659,cs),
(199,654,o),
(193,646,o),
(193,635,cs),
(193,623,o),
(200,604,o),
(214,581,c),
(355,339,l),
(359,339,l),
(461,512,l),
(470,526,o),
(477,539,o),
(483,550,c),
(522,613,o),
(553,666,o),
(609,666,c),
(483,666,l),
(480,666,o),
(459,666,o),
(456,666,c),
(456,700,l)
);
}
);
width = 666;
},
{
layerId = m002;
shapes = (
{
closed = 1;
nodes = (
(664,700,l),
(664,666,l),
(651,666,o),
(621,666,o),
(610,666,cs),
(610,666,o),
(606,660,o),
(595,643,cs),
(587,630,o),
(575,612,o),
(563,593,c),
(550,573,o),
(535,548,o),
(516,516,cs),
(375,281,l),
(375,117,ls),
(375,36,o),
(375,35,o),
(375,35,c),
(463,35,l),
(466,35,o),
(470,35,o),
(474,35,c),
(474,0,l),
(180,0,l),
(180,35,l),
(201,35,o),
(253,35,o),
(267,35,cs),
(267,35,o),
(280,35,o),
(280,35,cs),
(280,49,o),
(280,79,o),
(280,98,cs),
(280,115,o),
(280,138,o),
(280,165,c),
(280,276,l),
(133,528,l),
(129,535,ls),
(125,542,o),
(100,584,o),
(84,611,cs),
(75,626,o),
(51,666,o),
(51,666,c),
(10,666,l),
(10,700,l),
(276,700,l),
(276,666,l),
(246,666,o),
(220,666,o),
(208,666,cs),
(194,666,o),
(164,666,o),
(164,666,cs),
(177,644,o),
(198,608,o),
(214,581,cs),
(355,339,l),
(359,339,l),
(462,512,ls),
(468,522,o),
(479,540,o),
(485,550,cs),
(521,610,o),
(554,665,o),
(554,666,c),
(483,666,l),
(480,666,o),
(459,666,o),
(456,666,c),
(456,700,l)
);
}
);
width = 666;
}
);
unicode = 89;
},
{
glyphname = Z;
lastChange = "2024-03-07 20:12:04 +0000";
layers = (
{
layerId = m01;
shapes = (
{
closed = 1;
nodes = (
(624,213,l),
(618,177,o),
(612,149,o),
(605,126,cs),
(593,88,o),
(571,58,o),
(527,49,cs),
(506,44,o),
(481,42,o),
(451,42,cs),
(244,42,l),
(80,40,l),
(80,40,o),
(164,42,o),
(238,137,c),
(642,696,l),
(642,700,l),
(76,700,l),
(75,532,l),
(108,532,l),
(117,579,o),
(133,612,o),
(154,632,cs),
(175,652,o),
(207,662,o),
(250,662,cs),
(560,662,ls),
(510,662,o),
(473,623,o),
(434,573,c),
(20,4,l),
(20,0,l),
(663,0,l),
(663,213,l)
);
}
);
width = 697;
},
{
layerId = m002;
shapes = (
{
closed = 1;
nodes = (
(607,213,l),
(607,176,o),
(607,135,o),
(607,111,cs),
(607,67,o),
(607,42,o),
(607,42,cs),
(578,42,o),
(481,42,o),
(451,42,cs),
(244,42,l),
(168,40,l),
(168,40,o),
(175,50,o),
(238,137,cs),
(642,696,l),
(642,700,l),
(75,699,l),
(74,531,l),
(130,532,l),
(130,567,o),
(130,617,o),
(130,662,cs),
(130,662,o),
(207,662,o),
(250,662,cs),
(499,662,ls),
(499,662,o),
(471,624,o),
(434,573,cs),
(20,4,l),
(20,0,l),
(663,0,l),
(663,213,l)
);
}
);
width = 697;
}
);
unicode = 90;
},
{
glyphname = a;
lastChange = "2024-03-10 00:46:14 +0000";
layers = (
{
layerId = m01;
shapes = (
{
closed = 1;
nodes = (
(515,42,l),
(507,28,o),
(494,16,o),
(475,6,cs),
(455,-4,o),
(434,-8,o),
(414,-8,cs),
(386,-8,o),
(359,0,o),
(346,19,cs),
(333,36,o),
(326,58,o),
(326,88,cs),
(326,94,l),
(325,235,l),
(325,275,l),
(290,262,o),
(261,249,o),
(236,236,cs),
(212,222,o),
(194,208,o),
(178,195,cs),
(162,183,o),
(151,170,o),
(145,157,cs),
(139,144,o),
(136,131,o),
(136,118,cs),
(136,98,o),
(142,80,o),
(156,68,cs),
(170,55,o),
(189,49,o),
(210,49,cs),
(226,49,o),
(241,53,o),
(255,61,cs),
(268,69,o),
(281,79,o),
(292,94,cs),
(298,102,o),
(301,107,o),
(305,115,c),
(297,90,o),
(285,64,o),
(268,43,cs),
(245,14,o),
(213,-7,o),
(168,-7,cs),
(129,-7,o),
(99,2,o),
(76,23,cs),
(55,43,o),
(43,69,o),
(43,102,cs),
(43,117,o),
(46,131,o),
(51,144,cs),
(57,157,o),
(65,171,o),
(76,183,cs),
(87,195,o),
(104,207,o),
(123,219,cs),
(142,231,o),
(165,244,o),
(194,257,c),
(325,315,l),
(325,353,ls),
(325,428,o),
(293,466,o),
(229,466,cs),
(192,466,o),
(173,445,o),
(169,430,c),
(173,422,o),
(176,413,o),
(176,403,cs),
(176,392,o),
(173,381,o),
(167,373,cs),
(157,358,o),
(139,348,o),
(121,348,cs),
(99,348,o),
(80,362,o),
(71,380,cs),
(67,389,o),
(65,396,o),
(65,407,cs),
(65,437,o),
(81,459,o),
(112,475,cs),
(143,492,o),
(189,500,o),
(247,500,cs),
(307,500,o),
(351,489,o),
(377,468,cs),
(403,446,o),
(416,409,o),
(416,356,cs),
(416,178,l),
(416,142,ls),
(416,77,o),
(420,36,o),
(453,36,cs),
(476,36,o),
(493,53,o),
(501,65,c)
);
}
);
width = 515;
},
{
layerId = m002;
shapes = (
{
closed = 1;
nodes = (
(515,42,l),
(507,28,o),
(494,16,o),
(475,6,cs),
(455,-4,o),
(434,-8,o),
(414,-8,cs),
(386,-8,o),
(359,0,o),
(346,19,cs),
(333,36,o),
(326,58,o),
(326,88,cs),
(326,94,l),
(325,235,l),
(325,275,l),
(290,262,o),
(261,249,o),
(236,236,cs),
(212,222,o),
(194,208,o),
(178,195,cs),
(162,183,o),
(151,170,o),
(145,157,cs),
(139,144,o),
(136,131,o),
(136,118,cs),
(136,98,o),
(142,80,o),
(156,68,cs),
(170,55,o),
(189,49,o),
(210,49,cs),
(226,49,o),
(241,53,o),
(255,61,cs),
(268,69,o),
(281,79,o),
(292,94,cs),
(298,102,o),
(301,107,o),
(305,115,c),
(305,93,o),
(305,77,o),
(305,57,c),
(281,9,o),
(217,-7,o),
(168,-7,cs),
(129,-7,o),
(99,2,o),
(76,23,cs),
(55,43,o),
(43,69,o),
(43,102,cs),
(43,117,o),
(46,131,o),
(51,144,cs),
(57,157,o),
(65,171,o),
(76,183,cs),
(87,195,o),
(103,207,o),
(123,219,cs),
(142,231,o),
(165,244,o),
(194,257,cs),
(325,315,l),
(325,353,ls),
(325,428,o),
(293,466,o),
(229,466,cs),
(175,466,o),
(144,432,o),
(144,409,c),
(148,409,o),
(170,409,o),
(173,409,c),
(173,397,o),
(173,357,o),
(173,348,cs),
(173,348,o),
(139,348,o),
(121,348,cs),
(99,348,o),
(65,348,o),
(65,348,cs),
(65,358,o),
(65,392,o),
(68,408,cs),
(73,434,o),
(92,459,o),
(117,475,cs),
(148,495,o),
(189,500,o),
(247,500,cs),
(307,500,o),
(351,489,o),
(377,468,cs),
(403,446,o),
(416,409,o),
(416,356,cs),
(416,178,l),
(416,142,ls),
(416,77,o),
(420,36,o),
(453,36,cs),
(476,36,o),
(493,53,o),
(501,65,c)
);
}
);
width = 515;
}
);
unicode = 97;
},
{
glyphname = b;
lastChange = "2024-03-08 16:48:52 +0000";
layers = (
{
layerId = m01;
shapes = (
{
closed = 1;
nodes = (
(434,119,o),
(407,68,o),
(372,49,c),
(334,30,o),
(297,29,o),
(259,47,cs),
(208,71,o),
(175,141,o),
(175,194,cs),
(175,276,ls),
(175,343,o),
(189,402,o),
(244,438,cs),
(286,462,o),
(325,461,o),
(369,440,cs),
(413,415,o),
(431,376,o),
(445,328,cs),
(452,304,o),
(457,275,o),
(457,242,cs),
(457,211,o),
(452,184,o),
(445,159,cs)
);
},
{
closed = 1;
nodes = (
(530,377,o),
(513,404,o),
(492,426,cs),
(472,448,o),
(448,466,o),
(419,481,cs),
(391,495,o),
(358,501,o),
(325,501,cs),
(294,501,o),
(268,495,o),
(245,483,cs),
(221,469,o),
(198,449,o),
(177,424,c),
(174,424,l),
(174,753,l),
(0,753,l),
(0,707,l),
(148,707,l),
(87,707,o),
(87,616,o),
(87,591,cs),
(87,2,l),
(107,2,l),
(151,63,l),
(169,41,o),
(195,24,o),
(227,10,cs),
(256,-2,o),
(288,-8,o),
(322,-8,cs),
(356,-8,o),
(390,-2,o),
(417,10,cs),
(445,24,o),
(471,41,o),
(491,64,cs),
(512,88,o),
(529,115,o),
(542,146,cs),
(555,177,o),
(561,208,o),
(561,244,cs),
(561,283,o),
(555,316,o),
(542,345,cs)
);
}
);
width = 609;
},
{
layerId = m002;
shapes = (
{
closed = 1;
nodes = (
(436,120,o),
(407,68,o),
(372,49,c),
(334,30,o),
(297,29,o),
(259,47,cs),
(206,72,o),
(175,133,o),
(175,194,cs),
(175,276,ls),
(175,340,o),
(189,405,o),
(244,438,cs),
(286,462,o),
(325,461,o),
(369,440,cs),
(411,417,o),
(432,374,o),
(445,328,cs),
(452,304,o),
(457,275,o),
(457,242,cs),
(457,211,o),
(453,184,o),
(445,159,c)
);
},
{
closed = 1;
nodes = (
(530,377,o),
(513,404,o),
(492,426,cs),
(472,448,o),
(448,466,o),
(419,481,cs),
(391,495,o),
(358,501,o),
(325,501,cs),
(294,501,o),
(268,495,o),
(245,483,cs),
(221,469,o),
(198,449,o),
(177,424,c),
(174,424,l),
(174,753,l),
(0,753,l),
(0,707,l),
(86,707,ls),
(86,707,o),
(87,615,o),
(87,591,cs),
(87,2,l),
(151,2,l),
(151,63,l),
(169,41,o),
(195,24,o),
(227,10,cs),
(256,-2,o),
(288,-8,o),
(322,-8,cs),
(356,-8,o),
(390,-2,o),
(417,10,cs),
(445,24,o),
(471,41,o),
(491,64,cs),
(512,88,o),
(529,115,o),
(542,146,cs),
(555,177,o),
(561,208,o),
(561,244,cs),
(561,283,o),
(555,316,o),
(542,345,cs)
);
}
);
width = 609;
}
);
unicode = 98;
},
{
glyphname = c;
lastChange = "2024-03-10 01:32:34 +0000";
layers = (
{
layerId = m01;
shapes = (
{
closed = 1;
nodes = (
(407,70,o),
(340,40,o),
(301,40,qs),
(228,40,o),
(153,150,o),
(153,256,qs),
(153,354,o),
(221,456,o),
(287,456,qs),
(314,456,o),
(348,439,o),
(367,417,qs),
(384,393,o),
(406,379,o),
(422,379,qs),
(443,379,o),
(468,400,o),
(468,418,qs),
(468,436,o),
(443,467,o),
(401,488,o),
(342,500,o),
(305,500,qs),
(248,500,o),
(152,464,o),
(86,396,o),
(49,302,o),
(49,242,qs),
(49,186,o),
(81,93,o),
(139,28,o),
(222,-8,o),
(271,-8,qs),
(332,-8,o),
(437,37,o),
(470,77,q),
(443,104,l)
);
}
);
width = 500;
},
{
layerId = m002;
shapes = (
{
closed = 1;
nodes = (
(407,70,o),
(340,40,o),
(301,40,qs),
(228,40,o),
(153,150,o),
(153,256,qs),
(153,354,o),
(235,450,o),
(287,450,qs),
(367,450,o),
(367,450,o),
(367,417,q),
(367,379,o),
(367,379,o),
(422,379,q),
(449,379,o),
(449,379,o),
(449,424,qs),
(449,442,o),
(449,500,o),
(449,500,o),
(342,500,o),
(305,500,qs),
(248,500,o),
(152,464,o),
(86,396,o),
(49,302,o),
(49,242,qs),
(49,186,o),
(81,93,o),
(139,28,o),
(222,-8,o),
(271,-8,qs),
(332,-8,o),
(437,37,o),
(470,77,q),
(443,104,l)
);
}
);
width = 500;
}
);
unicode = 99;
},
{
glyphname = d;
lastChange = "2024-03-08 12:25:49 +0000";
layers = (
{
layerId = m01;
shapes = (
{
closed = 1;
nodes = (
(432,223,ls),
(432,178,o),
(432,132,o),
(407,95,cs),
(394,72,o),
(371,59,o),
(354,51,cs),
(330,41,o),
(313,37,o),
(288,37,cs),
(266,37,o),
(246,41,o),
(230,51,cs),
(191,73,o),
(170,121,o),
(160,164,cs),
(154,189,o),
(152,220,o),
(152,251,cs),
(152,314,o),
(163,365,o),
(187,400,cs),
(209,437,o),
(244,455,o),
(288,455,cs),
(309,455,o),
(331,450,o),
(352,442,cs),
(389,425,o),
(419,393,o),
(427,356,cs),
(431,339,o),
(432,315,o),
(432,283,cs)
);
},
{
closed = 1;
nodes = (
(464,35,l),
(523,35,o),
(523,118,o),
(523,143,cs),
(523,235,l),
(523,754,l),
(333,754,l),
(333,708,l),
(501,708,l),
(433,708,o),
(433,629,o),
(433,598,cs),
(433,531,l),
(433,438,l),
(411,459,o),
(389,476,o),
(366,485,cs),
(343,495,o),
(317,500,o),
(288,500,cs),
(254,500,o),
(221,493,o),
(191,481,cs),
(162,468,o),
(137,450,o),
(116,428,cs),
(94,406,o),
(78,379,o),
(66,349,cs),
(55,316,o),
(48,283,o),
(48,247,cs),
(48,210,o),
(55,176,o),
(66,144,cs),
(78,113,o),
(94,85,o),
(116,63,cs),
(137,41,o),
(161,23,o),
(191,11,cs),
(221,-1,o),
(254,-8,o),
(288,-8,cs),
(322,-8,o),
(350,-1,o),
(376,12,cs),
(400,26,o),
(424,48,o),
(447,78,c),
(451,78,l),
(451,-8,l),
(603,-8,l),
(603,35,l),
(595,35,o),
(589,35,o),
(583,35,c)
);
}
);
width = 628;
},
{
layerId = m002;
shapes = (
{
closed = 1;
nodes = (
(432,223,ls),
(432,178,o),
(432,132,o),
(407,95,cs),
(394,72,o),
(371,59,o),
(354,51,cs),
(330,41,o),
(313,37,o),
(288,37,cs),
(266,37,o),
(246,41,o),
(230,51,cs),
(191,73,o),
(170,121,o),
(160,164,cs),
(154,189,o),
(152,220,o),
(152,251,cs),
(152,314,o),
(163,365,o),
(187,400,cs),
(209,437,o),
(244,455,o),
(288,455,cs),
(309,455,o),
(331,450,o),
(352,442,cs),
(389,425,o),
(419,393,o),
(427,356,cs),
(431,339,o),
(432,315,o),
(432,283,cs)
);
},
{
closed = 1;
nodes = (
(523,35,l),
(523,53,o),
(523,118,o),
(523,143,cs),
(523,235,l),
(523,754,l),
(333,754,l),
(333,708,l),
(433,708,l),
(433,665,o),
(433,629,o),
(433,598,cs),
(433,531,l),
(433,438,l),
(411,459,o),
(389,476,o),
(366,485,cs),
(343,495,o),
(317,500,o),
(288,500,cs),
(254,500,o),
(221,493,o),
(191,481,cs),
(162,468,o),
(137,450,o),
(116,428,cs),
(94,406,o),
(78,379,o),
(66,349,cs),
(55,316,o),
(48,283,o),
(48,247,cs),
(48,210,o),
(55,176,o),
(66,144,cs),
(78,113,o),
(94,85,o),
(116,63,cs),
(137,41,o),
(161,23,o),
(191,11,cs),
(221,-1,o),
(254,-8,o),
(288,-8,cs),
(322,-8,o),
(350,-1,o),
(376,12,cs),
(400,26,o),
(424,48,o),
(447,78,c),
(451,78,l),
(451,-8,l),
(603,-8,l),
(603,35,l),
(595,35,o),
(589,35,o),
(583,35,c)
);
}
);
width = 628;
}
);
unicode = 100;
},
{
glyphname = e;
lastChange = "2024-03-09 20:43:22 +0000";
layers = (
{
layerId = m01;
shapes = (
{
closed = 1;
nodes = (
(487,299,o),
(489,304,o),
(489,312,cs),
(489,373,o),
(473,420,o),
(441,451,cs),
(408,484,o),
(361,500,o),
(302,500,cs),
(264,500,o),
(231,493,o),
(200,480,cs),
(169,467,o),
(142,450,o),
(120,427,cs),
(96,405,o),
(79,377,o),
(67,345,cs),
(55,312,o),
(49,279,o),
(49,240,cs),
(49,203,o),
(55,170,o),
(66,140,cs),
(79,109,o),
(94,83,o),
(116,60,cs),
(137,40,o),
(163,22,o),
(192,10,cs),
(221,-1,o),
(254,-8,o),
(290,-8,cs),
(368,-8,o),
(433,24,o),
(486,87,c),
(458,113,l),
(433,87,o),
(411,69,o),
(389,56,cs),
(366,46,o),
(342,41,o),
(317,41,cs),
(292,41,o),
(270,45,o),
(249,56,cs),
(229,65,o),
(212,80,o),
(198,98,cs),
(184,117,o),
(173,140,o),
(164,166,cs),
(157,191,o),
(153,221,o),
(153,253,cs),
(153,261,ls),
(153,279,o),
(156,302,o),
(163,337,cs),
(179,416,o),
(220,455,o),
(287,455,cs),
(319,455,o),
(343,448,o),
(361,431,cs),
(379,414,o),
(389,391,o),
(389,363,cs),
(389,357,o),
(389,352,o),
(387,349,cs),
(383,339,o),
(371,337,o),
(362,337,cs),
(333,337,l),
(249,337,ls),
(196,337,o),
(191,295,o),
(191,295,c),
(460,295,ls),
(473,295,o),
(481,296,o),
(484,297,cs)
);
}
);
width = 536;
},
{
layerId = m002;
shapes = (
{
closed = 1;
nodes = (
(489,295,o),
(489,304,o),
(489,312,cs),
(489,373,o),
(473,420,o),
(441,451,cs),
(408,484,o),
(361,500,o),
(302,500,cs),
(264,500,o),
(231,493,o),
(200,480,cs),
(169,467,o),
(142,450,o),
(120,427,cs),
(96,405,o),
(79,377,o),
(67,345,cs),
(55,312,o),
(49,279,o),
(49,240,cs),
(49,203,o),
(55,170,o),
(66,140,cs),
(79,109,o),
(94,83,o),
(116,60,cs),
(137,40,o),
(163,22,o),
(192,10,cs),
(221,-1,o),
(254,-8,o),
(290,-8,cs),
(368,-8,o),
(433,24,o),
(486,87,c),
(458,113,l),
(433,87,o),
(411,69,o),
(389,56,cs),
(366,46,o),
(342,41,o),
(317,41,cs),
(292,41,o),
(270,45,o),
(249,56,cs),
(229,65,o),
(212,80,o),
(198,98,cs),
(184,117,o),
(173,140,o),
(164,166,cs),
(157,191,o),
(153,221,o),
(153,253,cs),
(153,261,ls),
(153,279,o),
(156,302,o),
(163,337,cs),
(179,416,o),
(220,455,o),
(287,455,cs),
(319,455,o),
(343,448,o),
(361,431,cs),
(379,414,o),
(385,391,o),
(388,363,cs),
(389,357,o),
(389,340,o),
(389,337,cs),
(389,337,o),
(371,337,o),
(362,337,cs),
(333,337,l),
(191,337,ls),
(191,337,o),
(191,295,o),
(191,295,c),
(460,295,ls),
(473,295,o),
(486,295,o),
(489,295,cs)
);
}
);
width = 536;
}
);
unicode = 101;
},
{
glyphname = f;
lastChange = "2024-03-10 01:35:57 +0000";
layers = (
{
layerId = m01;
shapes = (
{
closed = 1;
nodes = (
(290,31,l),
(294,31,o),
(298,31,o),
(302,31,c),
(302,0,l),
(44,0,l),
(44,31,l),
(61,32,o),
(76,33,o),
(86,36,cs),
(95,39,o),
(103,43,o),
(110,52,cs),
(116,60,o),
(119,70,o),
(121,83,cs),
(123,97,o),
(123,114,o),
(123,137,c),
(123,423,l),
(20,423,l),
(20,466,l),
(123,466,l),
(208,466,l),
(354,466,l),
(354,423,l),
(208,423,l),
(208,185,l),
(208,183,o),
(207,31,o),
(102,31,c)
);
},
{
closed = 1;
nodes = (
(459,657,o),
(456,643,o),
(449,632,cs),
(439,617,o),
(423,607,o),
(400,607,cs),
(379,607,o),
(360,618,o),
(348,635,cs),
(340,645,o),
(336,658,o),
(336,672,cs),
(336,680,o),
(337,689,o),
(340,696,c),
(330,704,o),
(312,707,o),
(300,707,cs),
(265,707,o),
(236,689,o),
(220,652,c),
(216,640,o),
(212,626,o),
(210,607,cs),
(208,595,o),
(208,582,o),
(208,573,c),
(208,507,o),
(157,483,o),
(123,483,c),
(123,539,l),
(123,601,o),
(141,654,o),
(177,693,c),
(214,732,o),
(266,750,o),
(334,750,cs),
(371,750,o),
(406,742,o),
(424,732,cs),
(452,716,o),
(459,689,o),
(459,672,cs)
);
}
);
width = 370;
},
{
layerId = m002;
shapes = (
{
closed = 1;
nodes = (
(290,31,l),
(294,31,o),
(298,31,o),
(302,31,c),
(302,0,l),
(44,0,l),
(44,31,l),
(61,31,o),
(76,31,o),
(86,31,cs),
(95,31,o),
(123,31,o),
(123,31,cs),
(123,44,o),
(123,66,o),
(123,83,cs),
(123,97,o),
(123,114,o),
(123,137,c),
(123,423,l),
(20,423,l),
(20,466,l),
(123,466,l),
(208,466,l),
(354,466,l),
(354,423,l),
(208,423,l),
(208,185,l),
(208,183,o),
(207,105,o),
(207,31,c)
);
},
{
closed = 1;
nodes = (
(443,718,o),
(443,629,o),
(443,618,cs),
(443,618,o),
(417,618,o),
(394,618,cs),
(374,618,o),
(357,618,o),
(357,618,c),
(357,618,o),
(357,634,o),
(357,649,cs),
(357,662,o),
(357,700,o),
(357,700,cs),
(344,700,o),
(312,700,o),
(300,700,cs),
(265,700,o),
(236,689,o),
(220,652,c),
(216,640,o),
(212,626,o),
(210,607,cs),
(208,595,o),
(208,470,o),
(208,483,cs),
(208,483,o),
(196,483,o),
(123,483,c),
(123,539,l),
(123,601,o),
(141,654,o),
(177,693,c),
(214,732,o),
(266,750,o),
(334,750,cs),
(371,750,o),
(433,750,o),
(418,750,cs),
(417,750,o),
(443,750,o),
(443,750,cs)
);
}
);
width = 370;
}
);
unicode = 102;
},
{
glyphname = g;
lastChange = "2024-03-10 00:59:46 +0000";
layers = (
{
layerId = m01;
shapes = (
{
closed = 1;
nodes = (
(308,-239,o),
(287,-240,o),
(266,-240,cs),
(231,-240,o),
(199,-236,o),
(170,-230,cs),
(142,-224,o),
(117,-216,o),
(98,-205,cs),
(77,-193,o),
(61,-179,o),
(49,-163,cs),
(39,-147,o),
(32,-130,o),
(32,-110,cs),
(32,-98,o),
(34,-85,o),
(38,-75,cs),
(42,-63,o),
(49,-53,o),
(56,-45,cs),
(69,-30,o),
(89,-18,o),
(114,-18,cs),
(125,-18,o),
(135,-20,o),
(144,-23,cs),
(154,-26,o),
(163,-31,o),
(171,-38,c),
(155,-41,o),
(141,-50,o),
(130,-64,cs),
(120,-79,o),
(114,-96,o),
(114,-114,cs),
(114,-118,ls),
(114,-127,o),
(117,-136,o),
(121,-144,cs),
(144,-191,o),
(199,-216,o),
(268,-228,cs),
(303,-234,o),
(326,-236,o),
(326,-236,c)
);
},
{
closed = 1;
nodes = (
(566,438,o),
(563,425,o),
(554,414,cs),
(547,405,o),
(535,398,o),
(518,398,cs),
(504,398,o),
(490,406,o),
(481,418,cs),
(476,425,o),
(473,434,o),
(473,444,cs),
(473,459,o),
(484,472,o),
(493,475,c),
(449,469,o),
(420,417,o),
(419,416,c),
(429,398,o),
(437,371,o),
(437,337,cs),
(437,285,o),
(421,242,o),
(387,213,cs),
(355,183,o),
(306,165,o),
(241,161,cs),
(204,157,o),
(176,154,o),
(161,149,cs),
(147,143,o),
(140,134,o),
(140,122,cs),
(140,112,o),
(145,104,o),
(156,100,cs),
(167,96,o),
(184,94,o),
(205,91,cs),
(226,88,o),
(344,75,o),
(358,73,cs),
(402,67,o),
(439,50,o),
(465,22,cs),
(492,-5,o),
(505,-40,o),
(505,-81,cs),
(505,-133,o),
(484,-172,o),
(443,-199,cs),
(424,-213,o),
(400,-222,o),
(371,-228,c),
(375,-227,o),
(385,-222,o),
(396,-209,cs),
(412,-191,o),
(428,-159,o),
(428,-101,cs),
(428,-78,o),
(419,-57,o),
(402,-41,cs),
(385,-25,o),
(368,-16,o),
(343,-11,cs),
(328,-8,o),
(313,-6,o),
(251,1,cs),
(177,9,ls),
(144,13,o),
(117,21,o),
(99,36,cs),
(81,51,o),
(72,72,o),
(72,97,cs),
(72,119,o),
(80,139,o),
(99,155,cs),
(145,193,o),
(222,191,o),
(264,200,cs),
(287,204,o),
(304,213,o),
(318,235,cs),
(331,258,o),
(339,292,o),
(339,334,cs),
(339,375,o),
(331,408,o),
(318,431,cs),
(303,454,o),
(281,466,o),
(256,466,cs),
(228,466,o),
(208,454,o),
(192,430,cs),
(176,407,o),
(168,375,o),
(168,335,cs),
(168,294,o),
(176,261,o),
(193,237,cs),
(201,224,o),
(211,215,o),
(220,209,c),
(178,209,o),
(112,218,o),
(86,271,c),
(86,271,o),
(86,271,o),
(86,272,c),
(79,291,ls),
(74,306,o),
(71,321,o),
(71,338,cs),
(71,360,o),
(76,383,o),
(84,402,cs),
(94,421,o),
(106,439,o),
(122,453,cs),
(139,468,o),
(158,479,o),
(181,488,cs),
(203,496,o),
(227,500,o),
(254,500,cs),
(280,500,o),
(306,496,o),
(330,488,cs),
(355,479,o),
(375,467,o),
(392,451,c),
(413,469,o),
(432,481,o),
(447,488,cs),
(464,496,o),
(479,500,o),
(493,500,cs),
(515,500,o),
(533,495,o),
(546,485,cs),
(560,475,o),
(566,459,o),
(566,444,cs)
);
}
);
width = 556;
},
{
layerId = m002;
shapes = (
{
closed = 1;
nodes = (
(308,-239,o),
(287,-240,o),
(266,-240,cs),
(231,-240,o),
(199,-236,o),
(170,-230,cs),
(142,-224,o),
(117,-216,o),
(98,-205,cs),
(77,-193,o),
(61,-179,o),
(49,-163,cs),
(39,-147,o),
(32,-130,o),
(32,-110,cs),
(32,-98,o),
(34,-85,o),
(38,-75,cs),
(42,-63,o),
(50,-53,o),
(58,-45,cs),
(71,-32,o),
(87,-25,o),
(112,-21,cs),
(130,-18,o),
(149,-18,o),
(171,-18,c),
(171,-29,o),
(171,-45,o),
(171,-45,cs),
(146,-45,o),
(135,-58,o),
(130,-64,cs),
(120,-79,o),
(114,-96,o),
(114,-114,cs),
(114,-118,ls),
(114,-127,o),
(117,-136,o),
(121,-144,cs),
(144,-192,o),
(209,-206,o),
(326,-206,cs),
(326,-206,o),
(326,-222,o),
(326,-236,c)
);
},
{
closed = 1;
nodes = (
(566,412,o),
(565,412,o),
(556,412,cs),
(545,412,o),
(538,412,o),
(518,412,cs),
(508,412,o),
(498,412,o),
(487,412,c),
(487,421,o),
(487,417,o),
(487,429,c),
(479,429,o),
(460,429,o),
(444,426,cs),
(427,423,o),
(420,418,o),
(419,417,c),
(429,400,o),
(437,371,o),
(437,337,cs),
(437,285,o),
(421,242,o),
(387,213,cs),
(355,183,o),
(306,165,o),
(241,161,cs),
(204,157,o),
(176,154,o),
(161,149,cs),
(147,143,o),
(140,134,o),
(140,122,cs),
(140,112,o),
(145,104,o),
(156,100,cs),
(167,96,o),
(184,94,o),
(205,91,cs),
(226,88,o),
(344,75,o),
(358,73,cs),
(402,67,o),
(439,50,o),
(465,22,cs),
(492,-5,o),
(505,-40,o),
(505,-81,cs),
(505,-133,o),
(484,-172,o),
(443,-199,cs),
(424,-213,o),
(400,-222,o),
(371,-228,c),
(371,-223,o),
(371,-215,o),
(371,-203,cs),
(371,-203,o),
(428,-182,o),
(428,-101,cs),
(428,-78,o),
(419,-57,o),
(402,-41,cs),
(385,-25,o),
(368,-16,o),
(343,-11,cs),
(328,-8,o),
(313,-6,o),
(251,1,cs),
(177,9,ls),
(144,13,o),
(117,21,o),
(99,36,cs),
(81,51,o),
(72,72,o),
(72,97,cs),
(72,119,o),
(80,139,o),
(99,155,cs),
(145,193,o),
(222,191,o),
(264,200,cs),
(287,204,o),
(304,213,o),
(318,235,cs),
(331,258,o),
(339,292,o),
(339,334,cs),
(339,375,o),
(331,408,o),
(318,431,cs),
(303,454,o),
(281,466,o),
(256,466,cs),
(228,466,o),
(208,454,o),
(192,430,cs),
(176,407,o),
(168,375,o),
(168,335,cs),
(168,290,o),
(184,235,o),
(220,235,cs),
(220,235,o),
(220,219,o),
(220,209,c),
(178,209,o),
(112,218,o),
(86,271,c),
(86,271,o),
(86,271,o),
(86,272,c),
(79,291,ls),
(74,306,o),
(71,321,o),
(71,338,cs),
(71,360,o),
(76,383,o),
(84,402,cs),
(94,421,o),
(106,439,o),
(122,453,cs),
(139,468,o),
(158,479,o),
(181,488,cs),
(203,496,o),
(227,500,o),
(254,500,cs),
(280,500,o),
(306,496,o),
(330,488,cs),
(355,479,o),
(375,467,o),
(392,451,c),
(413,469,o),
(422,474,o),
(438,481,cs),
(455,488,o),
(479,490,o),
(493,491,cs),
(511,492,o),
(550,492,o),
(566,492,cs),
(566,492,o),
(566,427,o),
(566,412,cs)
);
}
);
width = 556;
}
);
unicode = 103;
},
{
glyphname = h;
lastChange = "2024-03-08 18:43:50 +0000";
layers = (
{
layerId = m01;
shapes = (
{
closed = 1;
nodes = (
(615,31,l),
(615,0,l),
(371,0,l),
(371,31,l),
(392,32,o),
(423,37,o),
(437,53,cs),
(442,60,o),
(446,71,o),
(447,84,cs),
(448,98,o),
(449,118,o),
(449,140,cs),
(449,256,ls),
(449,326,o),
(440,373,o),
(423,405,cs),
(409,431,o),
(382,447,o),
(345,447,cs),
(315,447,o),
(290,440,o),
(265,425,cs),
(232,405,o),
(216,378,o),
(204,349,cs),
(200,339,o),
(195,319,o),
(194,302,cs),
(193,292,o),
(193,280,o),
(193,265,cs),
(193,176,ls),
(193,43,o),
(87,31,o),
(87,31,cs),
(269,31,l),
(269,0,l),
(24,0,l),
(24,31,l),
(43,32,o),
(78,37,o),
(90,53,cs),
(96,60,o),
(99,71,o),
(101,84,cs),
(103,98,o),
(104,118,o),
(104,140,cs),
(104,534,l),
(104,585,ls),
(104,673,o),
(170,706,o),
(170,706,cs),
(22,706,l),
(22,752,l),
(191,753,l),
(191,414,l),
(195,414,l),
(218,442,o),
(238,457,o),
(275,475,cs),
(306,488,o),
(347,499,o),
(377,499,cs),
(405,499,o),
(431,494,o),
(455,484,cs),
(501,464,o),
(523,437,o),
(532,389,cs),
(538,365,o),
(540,334,o),
(540,295,cs),
(540,171,ls),
(540,43,o),
(433,31,o),
(433,31,cs)
);
}
);
width = 638;
},
{
layerId = m002;
shapes = (
{
closed = 1;
nodes = (
(615,31,l),
(615,0,l),
(371,0,l),
(371,31,l),
(393,31,o),
(449,31,o),
(449,31,cs),
(449,31,o),
(449,66,o),
(449,79,cs),
(449,92,o),
(449,118,o),
(449,140,cs),
(449,256,ls),
(449,326,o),
(440,373,o),
(423,405,cs),
(409,431,o),
(382,447,o),
(345,447,cs),
(315,447,o),
(290,440,o),
(265,425,cs),
(232,405,o),
(216,378,o),
(204,349,cs),
(200,339,o),
(195,319,o),
(194,302,cs),
(193,292,o),
(193,280,o),
(193,265,cs),
(193,176,ls),
(193,43,o),
(193,31,o),
(193,31,cs),
(269,31,l),
(269,0,l),
(24,0,l),
(24,32,l),
(43,32,o),
(93,32,o),
(104,32,cs),
(104,32,o),
(104,69,o),
(104,84,cs),
(104,98,o),
(104,118,o),
(104,140,cs),
(104,534,l),
(104,585,ls),
(104,673,o),
(104,706,o),
(104,706,cs),
(22,706,l),
(22,752,l),
(191,753,l),
(191,414,l),
(195,414,l),
(218,442,o),
(238,457,o),
(275,475,cs),
(306,488,o),
(347,499,o),
(377,499,cs),
(405,499,o),
(431,494,o),
(455,484,cs),
(501,464,o),
(523,437,o),
(532,389,cs),
(538,365,o),
(540,334,o),
(540,295,cs),
(540,171,ls),
(540,43,o),
(540,31,o),
(540,31,cs)
);
}
);
width = 638;
}
);
unicode = 104;
},
{
glyphname = i;
lastChange = "2024-03-08 19:16:59 +0000";
layers = (
{
layerId = m01;
shapes = (
{
closed = 1;
nodes = (
(301,32,l),
(301,0,l),
(36,0,l),
(36,32,l),
(53,32,o),
(68,33,o),
(81,39,cs),
(99,47,o),
(116,63,o),
(121,87,cs),
(124,102,o),
(124,121,o),
(124,141,cs),
(124,259,l),
(124,355,ls),
(124,427,o),
(163,462,o),
(185,462,c),
(32,462,l),
(32,500,l),
(213,500,l),
(213,169,ls),
(213,39,o),
(92,32,o),
(92,32,c)
);
},
{
closed = 1;
nodes = (
(222,674,o),
(217,661,o),
(206,649,cs),
(194,638,o),
(181,631,o),
(166,631,cs),
(150,631,o),
(136,638,o),
(124,649,cs),
(113,661,o),
(108,674,o),
(108,689,cs),
(108,705,o),
(112,720,o),
(124,731,cs),
(135,742,o),
(150,747,o),
(166,747,cs),
(181,747,o),
(195,742,o),
(206,731,cs),
(218,720,o),
(222,705,o),
(222,689,cs)
);
}
);
width = 321;
},
{
layerId = m002;
shapes = (
{
closed = 1;
nodes = (
(301,32,l),
(301,0,l),
(36,0,l),
(36,32,l),
(53,32,o),
(112,32,o),
(124,32,cs),
(124,32,o),
(124,53,o),
(124,80,cs),
(124,95,o),
(124,121,o),
(124,141,cs),
(124,259,l),
(124,355,ls),
(124,427,o),
(124,439,o),
(124,462,c),
(32,462,l),
(32,500,l),
(213,500,l),
(213,169,ls),
(213,39,o),
(213,32,o),
(213,32,c)
);
},
{
closed = 1;
nodes = (
(215,683,o),
(215,645,o),
(215,645,cs),
(215,645,o),
(180,645,o),
(166,645,cs),
(151,645,o),
(115,645,o),
(115,645,cs),
(115,645,o),
(115,683,o),
(115,696,cs),
(115,710,o),
(115,747,o),
(115,747,c),
(115,747,o),
(151,747,o),
(166,747,cs),
(180,747,o),
(215,747,o),
(215,747,c),
(215,747,o),
(215,710,o),
(215,696,cs)
);
}
);
width = 321;
}
);
unicode = 105;
},
{
glyphname = j;
lastChange = "2024-03-10 01:21:37 +0000";
layers = (
{
layerId = m01;
shapes = (
{
closed = 1;
nodes = (
(196,671,o),
(191,658,o),
(179,647,cs),
(168,636,o),
(155,631,o),
(138,631,cs),
(123,631,o),
(110,636,o),
(99,647,cs),
(88,658,o),
(83,671,o),
(83,687,cs),
(83,703,o),
(88,717,o),
(99,728,cs),
(110,739,o),
(123,745,o),
(138,745,cs),
(155,745,o),
(168,739,o),
(179,728,cs),
(191,717,o),
(196,703,o),
(196,687,cs)
);
},
{
closed = 1;
nodes = (
(5,500,l),
(5,462,l),
(158,462,l),
(120,462,o),
(97,399,o),
(97,359,cs),
(97,358,ls),
(97,332,o),
(96,293,o),
(96,261,cs),
(96,-60,ls),
(96,-111,o),
(90,-147,o),
(78,-167,cs),
(66,-188,o),
(45,-197,o),
(16,-197,cs),
(7,-197,o),
(-2,-195,o),
(-9,-192,cs),
(-15,-190,o),
(-19,-187,o),
(-22,-184,c),
(-17,-174,o),
(-13,-163,o),
(-13,-151,cs),
(-13,-117,o),
(-41,-89,o),
(-75,-89,cs),
(-104,-89,o),
(-129,-109,o),
(-135,-136,cs),
(-137,-144,o),
(-137,-157,o),
(-136,-162,cs),
(-132,-186,o),
(-121,-200,o),
(-100,-214,cs),
(-74,-230,o),
(-43,-237,o),
(-3,-237,cs),
(59,-237,o),
(106,-217,o),
(137,-175,cs),
(170,-134,o),
(185,-76,o),
(185,1,cs),
(185,500,l)
);
}
);
width = 276;
},
{
layerId = m002;
shapes = (
{
closed = 1;
nodes = (
(192,680,o),
(192,644,o),
(192,644,c),
(192,644,o),
(153,644,o),
(138,644,cs),
(125,644,o),
(87,644,o),
(87,644,c),
(87,644,o),
(87,680,o),
(87,695,cs),
(87,709,o),
(87,746,o),
(87,746,c),
(87,746,o),
(125,746,o),
(138,746,cs),
(153,746,o),
(192,746,o),
(192,746,c),
(192,746,o),
(192,709,o),
(192,695,cs)
);
},
{
closed = 1;
nodes = (
(5,500,l),
(5,462,l),
(97,462,l),
(97,425,o),
(97,399,o),
(97,359,cs),
(97,358,ls),
(97,332,o),
(97,293,o),
(97,261,cs),
(96,-60,ls),
(96,-111,o),
(90,-147,o),
(78,-167,cs),
(66,-188,o),
(44,-197,o),
(18,-197,cs),
(1,-197,o),
(-57,-197,o),
(-57,-151,cs),
(-57,-151,o),
(-40,-151,o),
(-13,-151,c),
(-13,-141,o),
(-13,-128,o),
(-13,-89,cs),
(-13,-89,o),
(-41,-89,o),
(-75,-89,cs),
(-104,-89,o),
(-136,-89,o),
(-136,-89,cs),
(-136,-98,o),
(-136,-143,o),
(-136,-149,cs),
(-136,-174,o),
(-121,-200,o),
(-100,-214,cs),
(-74,-230,o),
(-43,-237,o),
(-3,-237,cs),
(59,-237,o),
(106,-217,o),
(137,-175,cs),
(170,-134,o),
(185,-76,o),
(185,1,cs),
(185,500,l)
);
}
);
width = 276;
}
);
unicode = 106;
},
{
glyphname = k;
lastChange = "2024-03-08 15:21:08 +0000";
layers = (
{
layerId = m01;
shapes = (
{
closed = 1;
nodes = (
(288,32,l),
(288,0,l),
(16,0,l),
(16,35,l),
(36,35,o),
(51,37,o),
(63,39,cs),
(74,41,o),
(83,48,o),
(90,56,cs),
(97,65,o),
(103,75,o),
(105,89,cs),
(108,104,o),
(109,123,o),
(109,146,cs),
(109,539,l),
(109,558,o),
(109,589,o),
(109,627,c),
(109,635,o),
(106,747,o),
(174,747,c),
(15,747,l),
(15,795,l),
(198,795,l),
(198,193,l),
(198,191,l),
(198,172,ls),
(198,128,o),
(178,32,o),
(54,32,c)
);
},
{
closed = 1;
nodes = (
(585,32,l),
(585,0,l),
(333,0,l),
(333,35,l),
(355,35,o),
(369,35,o),
(378,37,cs),
(385,39,o),
(387,43,o),
(387,46,cs),
(387,52,o),
(384,58,o),
(375,71,cs),
(365,85,o),
(352,102,o),
(336,120,c),
(235,243,l),
(210,271,l),
(291,357,ls),
(319,386,o),
(339,407,o),
(353,421,c),
(368,435,o),
(374,445,o),
(374,452,cs),
(374,459,o),
(368,464,o),
(353,468,cs),
(340,471,o),
(322,474,o),
(296,474,c),
(296,508,l),
(546,508,l),
(546,474,l),
(542,474,o),
(523,473,o),
(514,472,cs),
(505,471,o),
(497,469,o),
(488,465,cs),
(481,461,o),
(472,456,o),
(462,449,cs),
(452,442,o),
(443,435,o),
(432,424,cs),
(303,291,l),
(407,177,ls),
(451,128,o),
(505,32,o),
(397,32,c)
);
}
);
width = 590;
},
{
layerId = m002;
shapes = (
{
closed = 1;
nodes = (
(288,32,l),
(288,0,l),
(16,0,l),
(16,35,l),
(36,35,o),
(51,32,o),
(63,32,cs),
(74,32,o),
(109,32,o),
(109,32,cs),
(109,32,o),
(109,67,o),
(109,83,cs),
(109,98,o),
(109,123,o),
(109,146,cs),
(109,539,l),
(109,558,o),
(109,589,o),
(109,627,cs),
(109,635,o),
(109,683,o),
(109,747,c),
(15,747,l),
(15,795,l),
(198,795,l),
(198,193,l),
(198,191,l),
(198,172,ls),
(198,128,o),
(198,78,o),
(198,32,c)
);
},
{
closed = 1;
nodes = (
(585,32,l),
(585,0,l),
(333,0,l),
(333,32,l),
(355,32,o),
(369,32,o),
(378,32,cs),
(385,32,o),
(403,32,o),
(411,32,c),
(408,35,o),
(389,58,o),
(378,71,cs),
(367,84,o),
(352,102,o),
(336,120,c),
(235,243,l),
(210,271,l),
(291,357,ls),
(319,386,o),
(341,407,o),
(355,421,cs),
(370,436,o),
(398,463,o),
(409,474,cs),
(409,474,o),
(368,474,o),
(353,474,cs),
(340,474,o),
(322,474,o),
(296,474,c),
(296,508,l),
(546,508,l),
(546,474,l),
(542,474,o),
(522,474,o),
(513,474,cs),
(504,474,o),
(490,474,o),
(480,474,cs),
(480,474,o),
(471,464,o),
(458,451,cs),
(448,441,o),
(443,435,o),
(432,424,cs),
(303,291,l),
(407,177,ls),
(451,128,o),
(537,32,o),
(537,32,c)
);
}
);
width = 590;
}
);
unicode = 107;
},
{
glyphname = l;
lastChange = "2024-03-08 15:28:41 +0000";
layers = (
{
layerId = m01;
shapes = (
{
closed = 1;
nodes = (
(286,0,l),
(22,0,l),
(22,33,l),
(29,33,o),
(43,32,o),
(67,39,cs),
(94,47,o),
(103,59,o),
(109,88,cs),
(112,102,o),
(112,120,o),
(112,143,cs),
(112,565,l),
(112,588,o),
(112,606,o),
(112,624,cs),
(112,640,o),
(115,748,o),
(175,748,c),
(20,748,l),
(20,796,l),
(201,795,l),
(201,163,ls),
(201,118,o),
(165,31,o),
(45,31,c),
(280,31,l),
(286,31,l)
);
}
);
width = 313;
},
{
layerId = m002;
shapes = (
{
closed = 1;
nodes = (
(286,0,l),
(22,0,l),
(22,33,l),
(29,33,o),
(87,33,o),
(112,33,cs),
(112,33,o),
(112,40,o),
(112,43,cs),
(112,77,o),
(112,120,o),
(112,143,cs),
(112,565,ls),
(112,588,o),
(112,606,o),
(112,624,cs),
(112,640,o),
(112,695,o),
(112,748,c),
(20,748,l),
(20,796,l),
(201,795,l),
(201,163,ls),
(201,118,o),
(201,68,o),
(201,31,c),
(280,31,l),
(286,31,l)
);
}
);
width = 313;
}
);
unicode = 108;
},
{
glyphname = m;
lastChange = "2024-03-15 14:16:40 +0000";
layers = (
{
layerId = m01;
shapes = (
{
closed = 1;
nodes = (
(1008,33,l),
(1008,1,l),
(754,1,l),
(754,35,l),
(772,35,o),
(786,36,o),
(798,39,cs),
(816,44,o),
(827,60,o),
(833,89,cs),
(836,102,o),
(836,123,o),
(836,147,c),
(836,266,l),
(836,303,o),
(834,333,o),
(830,359,c),
(824,395,o),
(810,437,o),
(776,454,cs),
(761,461,o),
(744,464,o),
(723,464,cs),
(695,464,o),
(669,457,o),
(645,441,cs),
(621,425,o),
(598,407,o),
(587,379,cs),
(571,337,o),
(571,289,o),
(571,276,cs),
(571,190,ls),
(571,166,o),
(561,33,o),
(457,33,c),
(651,33,l),
(651,1,l),
(397,1,l),
(397,35,l),
(415,35,o),
(429,36,o),
(440,39,cs),
(464,44,o),
(471,65,o),
(475,89,cs),
(477,102,o),
(477,123,o),
(477,147,c),
(477,266,l),
(477,303,o),
(475,334,o),
(471,360,c),
(465,399,o),
(455,437,o),
(419,455,cs),
(405,462,o),
(388,464,o),
(367,464,cs),
(338,464,o),
(311,457,o),
(287,441,cs),
(262,425,o),
(240,404,o),
(229,379,cs),
(212,342,o),
(213,291,o),
(213,276,cs),
(213,193,l),
(213,166,o),
(212,33,o),
(99,33,c),
(291,33,l),
(291,1,l),
(38,1,l),
(38,35,l),
(57,35,o),
(70,37,o),
(81,40,cs),
(94,44,o),
(100,50,o),
(106,58,cs),
(111,65,o),
(115,76,o),
(117,89,cs),
(119,102,o),
(120,123,o),
(120,147,c),
(120,268,l),
(120,293,o),
(120,315,o),
(120,333,cs),
(120,356,o),
(122,386,o),
(130,406,c),
(138,428,o),
(159,456,o),
(180,456,c),
(36,456,l),
(36,508,l),
(204,508,l),
(203,421,l),
(208,421,l),
(237,454,o),
(267,478,o),
(299,493,c),
(331,509,o),
(365,517,o),
(403,517,c),
(444,517,o),
(478,509,o),
(504,492,c),
(532,477,o),
(552,453,o),
(562,422,c),
(565,422,l),
(589,453,o),
(618,476,o),
(652,492,cs),
(686,509,o),
(721,517,o),
(759,517,c),
(789,517,o),
(817,513,o),
(842,503,cs),
(867,493,o),
(885,479,o),
(898,461,cs),
(909,447,o),
(915,428,o),
(921,403,cs),
(926,380,o),
(930,348,o),
(930,305,c),
(930,185,l),
(930,160,o),
(929,33,o),
(815,33,c)
);
}
);
width = 1031;
},
{
layerId = m002;
shapes = (
{
closed = 1;
nodes = (
(1007,33,l),
(1007,1,l),
(753,1,l),
(753,34,l),
(772,34,o),
(823,34,o),
(835,34,c),
(835,52,o),
(835,59,o),
(835,88,cs),
(835,100,o),
(835,121,o),
(835,145,c),
(835,262,l),
(835,298,o),
(833,328,o),
(829,354,c),
(823,389,o),
(809,430,o),
(775,447,cs),
(760,454,o),
(743,457,o),
(722,457,cs),
(694,457,o),
(668,450,o),
(644,434,cs),
(620,419,o),
(597,401,o),
(586,373,cs),
(570,332,o),
(570,285,o),
(570,272,cs),
(570,187,ls),
(570,163,o),
(570,93,o),
(570,33,c),
(650,33,l),
(650,1,l),
(396,1,l),
(396,34,l),
(414,34,o),
(465,34,o),
(476,34,cs),
(476,34,o),
(476,66,o),
(476,94,cs),
(476,106,o),
(476,121,o),
(476,145,c),
(476,262,l),
(476,298,o),
(474,329,o),
(470,355,c),
(464,393,o),
(454,430,o),
(418,448,cs),
(404,455,o),
(387,457,o),
(366,457,cs),
(337,457,o),
(310,450,o),
(286,434,cs),
(261,419,o),
(239,398,o),
(228,373,cs),
(211,337,o),
(212,287,o),
(212,272,cs),
(212,190,l),
(212,163,o),
(212,103,o),
(212,33,c),
(290,33,l),
(290,1,l),
(37,1,l),
(37,33,l),
(56,33,o),
(70,33,o),
(81,33,cs),
(95,33,o),
(120,33,o),
(120,33,cs),
(120,33,o),
(120,75,o),
(120,88,cs),
(120,100,o),
(120,121,o),
(120,145,c),
(120,264,l),
(120,289,o),
(120,310,o),
(120,328,cs),
(120,351,o),
(120,378,o),
(120,400,cs),
(120,421,o),
(120,437,o),
(120,449,c),
(35,449,l),
(35,500,l),
(203,500,l),
(202,415,l),
(207,415,l),
(236,447,o),
(266,471,o),
(298,485,c),
(330,501,o),
(364,509,o),
(402,509,c),
(443,509,o),
(477,501,o),
(503,484,c),
(531,470,o),
(551,446,o),
(561,416,c),
(564,416,l),
(588,446,o),
(617,469,o),
(651,484,cs),
(685,501,o),
(720,509,o),
(758,509,c),
(788,509,o),
(816,505,o),
(841,495,cs),
(866,485,o),
(884,472,o),
(897,454,cs),
(908,440,o),
(914,421,o),
(920,397,cs),
(925,374,o),
(929,343,o),
(929,300,c),
(929,182,l),
(929,158,o),
(928,103,o),
(928,33,c)
);
}
);
width = 1031;
}
);
unicode = 109;
},
{
glyphname = n;
lastChange = "2024-03-15 14:17:00 +0000";
layers = (
{
layerId = m01;
shapes = (
{
closed = 1;
nodes = (
(638,31,l),
(638,-1,l),
(389,-1,l),
(389,32,l),
(406,33,o),
(420,34,o),
(431,37,cs),
(454,43,o),
(464,63,o),
(466,86,cs),
(467,101,o),
(468,119,o),
(468,142,c),
(468,268,l),
(468,304,o),
(465,335,o),
(462,360,cs),
(457,395,o),
(448,434,o),
(410,453,cs),
(396,460,o),
(379,463,o),
(359,463,cs),
(330,463,o),
(304,456,o),
(280,441,cs),
(257,427,o),
(238,404,o),
(226,380,cs),
(221,370,o),
(215,356,o),
(212,341,cs),
(208,317,o),
(208,292,o),
(208,277,c),
(208,178,l),
(207,142,o),
(196,32,o),
(99,32,c),
(286,32,l),
(286,-1,l),
(35,-1,l),
(35,32,l),
(54,33,o),
(68,35,o),
(79,39,cs),
(97,45,o),
(112,61,o),
(114,84,cs),
(116,99,o),
(116,118,o),
(116,142,c),
(116,269,l),
(116,293,o),
(116,313,o),
(116,331,c),
(116,332,l),
(116,354,o),
(118,384,o),
(125,404,c),
(134,427,o),
(155,454,o),
(178,454,c),
(44,454,l),
(44,502,l),
(199,502,l),
(199,421,l),
(203,421,l),
(227,450,o),
(256,474,o),
(287,490,cs),
(320,506,o),
(355,515,o),
(394,515,cs),
(422,515,o),
(449,511,o),
(474,501,cs),
(498,492,o),
(516,477,o),
(529,461,cs),
(540,446,o),
(547,429,o),
(552,405,cs),
(556,382,o),
(559,349,o),
(559,308,cs),
(559,163,l),
(556,116,o),
(539,31,o),
(448,31,c)
);
}
);
width = 660;
},
{
layerId = m002;
shapes = (
{
closed = 1;
nodes = (
(638,32,l),
(638,0,l),
(389,0,l),
(389,33,l),
(406,33,o),
(468,33,o),
(468,33,cs),
(468,33,o),
(468,55,o),
(468,87,cs),
(468,102,o),
(468,120,o),
(468,143,c),
(468,269,l),
(468,305,o),
(465,336,o),
(462,361,cs),
(457,396,o),
(448,435,o),
(410,454,cs),
(396,461,o),
(379,464,o),
(359,464,cs),
(330,464,o),
(304,457,o),
(280,442,cs),
(257,428,o),
(238,405,o),
(226,381,cs),
(221,371,o),
(215,357,o),
(212,342,cs),
(208,318,o),
(208,293,o),
(208,278,c),
(208,179,ls),
(208,143,o),
(208,92,o),
(208,33,c),
(286,33,l),
(286,0,l),
(35,0,l),
(35,33,l),
(54,33,o),
(103,33,o),
(116,33,cs),
(116,33,o),
(116,56,o),
(116,85,cs),
(116,100,o),
(116,119,o),
(116,143,c),
(116,270,l),
(116,294,o),
(116,314,o),
(116,332,c),
(116,333,l),
(116,355,o),
(116,384,o),
(116,405,cs),
(116,428,o),
(116,438,o),
(116,455,c),
(44,455,l),
(44,503,l),
(199,503,l),
(199,422,l),
(203,422,l),
(227,451,o),
(256,475,o),
(287,491,cs),
(320,507,o),
(355,516,o),
(394,516,cs),
(422,516,o),
(449,512,o),
(474,502,cs),
(498,493,o),
(516,478,o),
(529,462,cs),
(540,447,o),
(547,430,o),
(552,406,cs),
(556,383,o),
(559,350,o),
(559,309,cs),
(559,164,ls),
(559,117,o),
(559,97,o),
(559,32,c)
);
}
);
width = 662;
}
);
unicode = 110;
},
{
glyphname = o;
lastChange = "2024-03-08 19:03:21 +0000";
layers = (
{
layerId = m01;
shapes = (
{
closed = 1;
nodes = (
(558,212,o),
(552,178,o),
(538,146,cs),
(526,114,o),
(510,87,o),
(486,64,cs),
(465,42,o),
(440,24,o),
(411,12,cs),
(383,0,o),
(353,-8,o),
(321,-8,c),
(321,39,l),
(342,40,o),
(361,44,o),
(378,53,cs),
(417,76,o),
(441,118,o),
(452,164,cs),
(459,189,o),
(462,217,o),
(462,250,cs),
(462,356,o),
(426,419,o),
(391,455,cs),
(356,491,o),
(321,500,o),
(321,500,c),
(353,500,o),
(383,493,o),
(411,481,cs),
(440,469,o),
(465,451,o),
(486,429,cs),
(510,408,o),
(526,380,o),
(538,350,cs),
(552,320,o),
(558,287,o),
(558,251,cs)
);
},
{
closed = 1;
nodes = (
(142,309,o),
(139,280,o),
(139,250,cs),
(139,244,ls),
(139,142,o),
(171,80,o),
(204,43,cs),
(240,3,o),
(278,-8,o),
(278,-8,c),
(276,-8,ls),
(244,-8,o),
(215,-1,o),
(188,12,cs),
(159,24,o),
(134,41,o),
(113,63,cs),
(91,87,o),
(76,114,o),
(63,146,cs),
(51,178,o),
(45,212,o),
(45,251,cs),
(45,287,o),
(51,321,o),
(63,351,cs),
(76,381,o),
(91,408,o),
(113,430,cs),
(134,452,o),
(159,470,o),
(188,482,cs),
(215,494,o),
(244,500,o),
(276,500,cs),
(278,500,l),
(278,456,l),
(276,456,ls),
(254,456,o),
(237,450,o),
(220,441,cs),
(203,431,o),
(189,418,o),
(176,400,cs),
(163,381,o),
(154,359,o),
(149,335,cs)
);
}
);
width = 603;
},
{
layerId = m002;
shapes = (
{
closed = 1;
nodes = (
(558,212,o),
(552,178,o),
(538,146,cs),
(526,114,o),
(510,87,o),
(486,64,cs),
(465,42,o),
(440,24,o),
(411,12,cs),
(383,0,o),
(353,-8,o),
(321,-8,c),
(321,39,l),
(342,40,o),
(361,44,o),
(378,53,cs),
(417,76,o),
(441,118,o),
(452,164,cs),
(459,189,o),
(462,217,o),
(462,250,cs),
(462,356,o),
(410,447,o),
(321,456,c),
(321,456,o),
(321,500,o),
(321,500,c),
(353,500,o),
(383,493,o),
(411,481,cs),
(440,469,o),
(465,451,o),
(486,429,cs),
(510,408,o),
(526,380,o),
(538,350,cs),
(552,320,o),
(558,287,o),
(558,251,cs)
);
},
{
closed = 1;
nodes = (
(142,309,o),
(139,280,o),
(139,250,cs),
(139,244,ls),
(139,142,o),
(193,51,o),
(278,39,c),
(278,39,o),
(278,-8,o),
(278,-8,c),
(276,-8,ls),
(244,-8,o),
(215,-1,o),
(188,12,cs),
(159,24,o),
(134,41,o),
(113,63,cs),
(91,87,o),
(76,114,o),
(63,146,cs),
(51,178,o),
(45,212,o),
(45,251,cs),
(45,287,o),
(51,321,o),
(63,351,cs),
(76,381,o),
(91,408,o),
(113,430,cs),
(134,452,o),
(159,470,o),
(188,482,cs),
(215,494,o),
(244,500,o),
(276,500,cs),
(278,500,l),
(278,456,l),
(276,456,ls),
(254,456,o),
(237,450,o),
(220,441,cs),
(203,431,o),
(189,418,o),
(176,400,cs),
(163,381,o),
(154,359,o),
(149,335,cs)
);
}
);
width = 603;
}
);
unicode = 111;
},
{
glyphname = p;
lastChange = "2024-03-08 16:54:56 +0000";
layers = (
{
layerId = m01;
shapes = (
{
closed = 1;
nodes = (
(414,56,o),
(378,37,o),
(337,37,cs),
(315,37,o),
(294,45,o),
(275,55,cs),
(255,66,o),
(238,81,o),
(224,100,cs),
(209,120,o),
(201,147,o),
(199,172,cs),
(198,184,o),
(198,200,o),
(198,216,cs),
(198,288,ls),
(198,316,o),
(200,338,o),
(204,354,cs),
(218,395,o),
(234,422,o),
(270,442,cs),
(288,452,o),
(309,456,o),
(331,456,cs),
(404,456,o),
(450,395,o),
(467,331,cs),
(485,259,o),
(487,157,o),
(438,91,cs)
);
},
{
closed = 1;
nodes = (
(553,379,o),
(536,406,o),
(514,428,cs),
(491,452,o),
(467,469,o),
(438,481,cs),
(410,494,o),
(377,500,o),
(343,500,cs),
(312,500,o),
(285,493,o),
(262,480,cs),
(240,466,o),
(219,449,o),
(198,425,c),
(194,425,l),
(194,490,l),
(18,490,l),
(18,443,l),
(26,443,l),
(179,443,l),
(115,443,o),
(109,357,o),
(109,330,cs),
(109,259,l),
(109,-88,ls),
(109,-109,o),
(107,-127,o),
(105,-140,cs),
(100,-164,o),
(90,-181,o),
(64,-189,cs),
(54,-192,o),
(38,-193,o),
(20,-194,c),
(20,-228,l),
(288,-228,l),
(288,-194,l),
(74,-194,l),
(197,-194,o),
(198,-105,o),
(198,-70,c),
(198,54,l),
(219,33,o),
(241,17,o),
(263,8,cs),
(288,-2,o),
(313,-7,o),
(342,-7,cs),
(375,-7,o),
(408,-1,o),
(437,11,cs),
(466,23,o),
(491,41,o),
(514,63,cs),
(535,86,o),
(552,111,o),
(564,143,cs),
(575,175,o),
(583,209,o),
(583,245,cs),
(583,283,o),
(576,317,o),
(564,348,cs)
);
}
);
width = 632;
},
{
layerId = m002;
shapes = (
{
closed = 1;
nodes = (
(414,56,o),
(378,37,o),
(337,37,cs),
(315,37,o),
(294,45,o),
(275,55,cs),
(255,66,o),
(238,81,o),
(224,100,cs),
(209,120,o),
(201,147,o),
(199,172,cs),
(198,184,o),
(198,200,o),
(198,216,cs),
(198,288,ls),
(198,316,o),
(200,338,o),
(204,354,cs),
(218,395,o),
(234,422,o),
(270,442,cs),
(288,452,o),
(309,456,o),
(331,456,cs),
(404,456,o),
(450,395,o),
(467,331,cs),
(485,259,o),
(487,157,o),
(438,91,cs)
);
},
{
closed = 1;
nodes = (
(553,379,o),
(536,406,o),
(514,428,cs),
(491,452,o),
(467,469,o),
(438,481,cs),
(410,494,o),
(377,500,o),
(343,500,cs),
(312,500,o),
(285,493,o),
(262,480,cs),
(240,466,o),
(219,449,o),
(198,425,c),
(194,425,l),
(194,490,l),
(18,490,l),
(18,443,l),
(26,443,l),
(109,443,l),
(109,406,o),
(109,357,o),
(109,330,cs),
(109,259,l),
(109,-88,ls),
(109,-109,o),
(109,-136,o),
(109,-149,cs),
(109,-173,o),
(109,-183,o),
(109,-194,c),
(69,-194,o),
(38,-194,o),
(20,-194,c),
(20,-228,l),
(288,-228,l),
(288,-194,l),
(197,-194,ls),
(197,-194,o),
(198,-105,o),
(198,-70,cs),
(198,54,l),
(219,33,o),
(241,17,o),
(263,8,cs),
(288,-2,o),
(313,-7,o),
(342,-7,cs),
(375,-7,o),
(408,-1,o),
(437,11,cs),
(466,23,o),
(491,41,o),
(514,63,cs),
(535,86,o),
(552,111,o),
(564,143,cs),
(575,175,o),
(583,209,o),
(583,245,cs),
(583,283,o),
(576,317,o),
(564,348,cs)
);
}
);
width = 632;
}
);
unicode = 112;
},
{
glyphname = q;
lastChange = "2024-03-08 17:35:06 +0000";
layers = (
{
layerId = m01;
shapes = (
{
closed = 1;
nodes = (
(431,216,ls),
(431,169,o),
(425,132,o),
(411,105,cs),
(390,62,o),
(347,38,o),
(297,38,cs),
(274,38,o),
(254,42,o),
(236,52,cs),
(201,72,o),
(174,118,o),
(162,160,cs),
(155,186,o),
(152,215,o),
(152,246,cs),
(152,279,o),
(155,307,o),
(162,333,cs),
(173,376,o),
(200,420,o),
(236,440,cs),
(267,457,o),
(306,463,o),
(349,442,cs),
(385,425,o),
(409,398,o),
(421,361,cs),
(427,341,o),
(431,320,o),
(431,298,cs)
);
},
{
closed = 1;
nodes = (
(415,-197,ls),
(491,-197,o),
(521,-141,o),
(521,-76,cs),
(521,489,l),
(498,489,l),
(457,425,l),
(437,448,o),
(412,466,o),
(382,480,cs),
(350,493,o),
(319,500,o),
(286,500,cs),
(252,500,o),
(221,493,o),
(193,480,cs),
(164,466,o),
(139,447,o),
(117,424,cs),
(96,401,o),
(78,375,o),
(66,342,cs),
(54,311,o),
(48,277,o),
(48,240,cs),
(48,204,o),
(53,171,o),
(64,141,cs),
(76,111,o),
(93,85,o),
(113,62,cs),
(133,40,o),
(158,23,o),
(187,12,cs),
(214,0,o),
(245,-6,o),
(280,-6,cs),
(313,-6,o),
(340,0,o),
(363,11,cs),
(387,23,o),
(409,42,o),
(430,69,c),
(434,69,l),
(434,-86,ls),
(434,-107,o),
(432,-125,o),
(429,-139,cs),
(423,-165,o),
(411,-183,o),
(384,-189,cs),
(372,-192,o),
(355,-194,o),
(335,-195,c),
(335,-228,l),
(599,-228,l),
(599,-197,l)
);
}
);
width = 587;
},
{
layerId = m002;
shapes = (
{
closed = 1;
nodes = (
(431,216,ls),
(431,169,o),
(425,132,o),
(411,105,cs),
(390,62,o),
(347,38,o),
(297,38,cs),
(274,38,o),
(254,42,o),
(236,52,cs),
(201,72,o),
(174,118,o),
(162,160,cs),
(155,186,o),
(152,215,o),
(152,246,cs),
(152,279,o),
(155,307,o),
(162,333,cs),
(173,376,o),
(200,420,o),
(236,440,cs),
(267,457,o),
(306,463,o),
(349,442,cs),
(385,425,o),
(409,398,o),
(421,361,cs),
(427,341,o),
(431,320,o),
(431,298,cs)
);
},
{
closed = 1;
nodes = (
(521,-197,ls),
(521,-197,o),
(521,-141,o),
(521,-76,cs),
(521,489,l),
(438,489,l),
(438,441,l),
(425,455,o),
(412,466,o),
(382,480,cs),
(350,493,o),
(319,500,o),
(286,500,cs),
(252,500,o),
(221,493,o),
(193,480,cs),
(164,466,o),
(139,447,o),
(117,424,cs),
(96,401,o),
(78,375,o),
(66,342,cs),
(54,311,o),
(48,277,o),
(48,240,cs),
(48,204,o),
(53,171,o),
(64,141,cs),
(76,111,o),
(93,85,o),
(113,62,cs),
(133,40,o),
(158,23,o),
(187,12,cs),
(214,0,o),
(245,-6,o),
(280,-6,cs),
(313,-6,o),
(340,0,o),
(363,11,cs),
(387,23,o),
(409,42,o),
(430,69,c),
(434,69,l),
(434,-86,ls),
(434,-107,o),
(434,-125,o),
(434,-139,cs),
(434,-167,o),
(434,-195,o),
(434,-195,cs),
(422,-195,o),
(355,-195,o),
(335,-195,c),
(335,-228,l),
(599,-228,l),
(599,-197,l)
);
}
);
width = 587;
}
);
unicode = 113;
},
{
glyphname = r;
lastChange = "2024-03-10 01:17:33 +0000";
layers = (
{
layerId = m01;
shapes = (
{
closed = 1;
nodes = (
(436,476,o),
(442,465,o),
(442,447,cs),
(442,433,o),
(437,420,o),
(429,410,cs),
(419,398,o),
(405,391,o),
(389,391,cs),
(376,391,o),
(366,395,o),
(357,400,cs),
(350,404,o),
(345,409,o),
(339,415,cs),
(338,416,o),
(334,419,o),
(330,421,cs),
(324,424,o),
(321,424,o),
(315,424,cs),
(301,424,o),
(283,412,o),
(265,391,c),
(248,371,o),
(234,344,o),
(224,312,cs),
(219,294,o),
(213,259,o),
(213,241,cs),
(213,217,o),
(213,203,o),
(213,179,cs),
(213,159,ls),
(213,107,o),
(192,33,o),
(104,33,c),
(286,33,l),
(286,0,l),
(39,0,l),
(39,33,l),
(57,33,o),
(73,34,o),
(85,38,cs),
(102,44,o),
(113,58,o),
(118,82,cs),
(121,97,o),
(121,118,o),
(121,138,cs),
(121,200,ls),
(121,243,o),
(121,277,o),
(121,321,c),
(122,353,o),
(113,444,o),
(183,444,c),
(36,444,l),
(36,479,l),
(213,479,l),
(213,374,l),
(215,374,l),
(224,394,o),
(234,408,o),
(248,426,cs),
(261,443,o),
(272,454,o),
(286,465,cs),
(301,477,o),
(318,486,o),
(330,491,cs),
(339,495,o),
(363,500,o),
(377,500,cs),
(398,500,o),
(413,497,o),
(427,485,cs)
);
}
);
width = 447;
},
{
layerId = m002;
shapes = (
{
closed = 1;
nodes = (
(442,500,o),
(442,465,o),
(442,447,cs),
(442,430,o),
(442,391,o),
(442,391,cs),
(428,391,o),
(408,391,o),
(394,391,cs),
(379,391,o),
(346,391,o),
(346,391,cs),
(346,399,o),
(346,409,o),
(346,420,cs),
(346,425,o),
(346,432,o),
(346,432,cs),
(339,432,o),
(328,430,o),
(315,426,cs),
(302,422,o),
(283,412,o),
(265,391,c),
(248,371,o),
(234,344,o),
(224,312,cs),
(219,294,o),
(213,259,o),
(213,241,cs),
(213,217,o),
(213,203,o),
(213,179,cs),
(213,159,ls),
(213,107,o),
(213,73,o),
(213,33,c),
(286,33,l),
(286,0,l),
(39,0,l),
(39,33,l),
(57,33,o),
(106,33,o),
(121,33,cs),
(121,33,o),
(121,48,o),
(121,79,cs),
(121,94,o),
(121,118,o),
(121,138,cs),
(121,200,ls),
(121,243,o),
(121,277,o),
(121,321,cs),
(121,353,o),
(121,410,o),
(121,444,c),
(36,444,l),
(36,479,l),
(213,479,l),
(213,374,l),
(215,374,l),
(224,394,o),
(234,408,o),
(248,426,cs),
(261,443,o),
(272,454,o),
(286,465,cs),
(301,477,o),
(318,486,o),
(330,491,cs),
(339,495,o),
(356,500,o),
(377,500,cs),
(398,500,o),
(427,500,o),
(442,500,cs)
);
}
);
width = 447;
}
);
unicode = 114;
},
{
glyphname = s;
lastChange = "2024-03-08 15:10:01 +0000";
layers = (
{
layerId = m01;
shapes = (
{
closed = 1;
nodes = (
(379,91,o),
(366,56,o),
(338,29,cs),
(311,6,o),
(272,-7,o),
(236,-7,cs),
(228,-7,l),
(228,29,l),
(249,29,o),
(262,36,o),
(276,48,cs),
(291,61,o),
(298,76,o),
(298,101,cs),
(298,123,o),
(293,131,o),
(277,147,cs),
(269,155,o),
(259,162,o),
(246,171,cs),
(232,181,o),
(214,193,o),
(192,207,cs),
(168,223,o),
(119,256,o),
(98,276,cs),
(88,287,o),
(79,300,o),
(74,314,cs),
(69,326,o),
(67,341,o),
(67,359,cs),
(67,398,o),
(82,436,o),
(105,461,cs),
(118,474,o),
(132,483,o),
(149,490,cs),
(167,496,o),
(185,500,o),
(204,500,cs),
(220,500,o),
(238,498,o),
(256,493,cs),
(273,488,o),
(289,480,o),
(303,473,c),
(302,491,l),
(339,491,l),
(339,359,l),
(316,359,l),
(301,395,o),
(287,422,o),
(269,440,cs),
(254,455,o),
(234,462,o),
(212,462,cs),
(190,462,o),
(174,457,o),
(162,446,cs),
(149,435,o),
(143,420,o),
(143,399,cs),
(143,389,o),
(145,380,o),
(148,372,cs),
(151,365,o),
(155,357,o),
(164,349,cs),
(172,342,o),
(180,335,o),
(192,327,cs),
(203,320,o),
(217,311,o),
(233,301,cs),
(301,257,ls),
(320,245,o),
(334,231,o),
(347,218,cs),
(358,206,o),
(367,193,o),
(372,178,cs),
(377,165,o),
(379,149,o),
(379,133,cs)
);
},
{
closed = 1;
nodes = (
(170,-7,o),
(134,8,o),
(102,33,c),
(84,2,l),
(64,2,l),
(64,161,l),
(89,161,l),
(103,99,o),
(122,24,o),
(177,1,cs),
(196,-7,l)
);
}
);
width = 426;
},
{
layerId = m002;
shapes = (
{
closed = 1;
nodes = (
(379,91,o),
(366,56,o),
(338,29,cs),
(311,6,o),
(276,-7,o),
(236,-7,cs),
(228,-7,l),
(228,29,l),
(248,29,o),
(262,36,o),
(276,48,cs),
(291,61,o),
(298,76,o),
(298,101,cs),
(298,123,o),
(293,131,o),
(277,147,cs),
(269,155,o),
(259,162,o),
(246,171,cs),
(232,181,o),
(214,193,o),
(192,207,cs),
(168,223,o),
(119,256,o),
(98,276,cs),
(88,287,o),
(79,300,o),
(74,314,cs),
(69,326,o),
(67,341,o),
(67,359,cs),
(67,398,o),
(82,436,o),
(105,461,cs),
(118,474,o),
(132,483,o),
(149,490,cs),
(167,496,o),
(185,500,o),
(204,500,cs),
(220,500,o),
(238,498,o),
(256,493,cs),
(273,488,o),
(289,480,o),
(303,473,c),
(303,491,l),
(339,491,l),
(339,359,l),
(305,359,l),
(302,378,o),
(292,416,o),
(269,440,cs),
(254,455,o),
(234,462,o),
(212,462,cs),
(190,462,o),
(174,457,o),
(162,446,cs),
(149,435,o),
(143,420,o),
(143,399,cs),
(143,389,o),
(145,380,o),
(148,372,cs),
(151,365,o),
(155,357,o),
(164,349,cs),
(172,342,o),
(180,335,o),
(192,327,cs),
(203,320,o),
(217,311,o),
(233,301,cs),
(301,257,ls),
(320,245,o),
(334,231,o),
(347,218,cs),
(358,206,o),
(367,193,o),
(372,178,cs),
(377,165,o),
(379,149,o),
(379,133,cs)
);
},
{
closed = 1;
nodes = (
(170,-7,o),
(134,8,o),
(102,33,c),
(102,2,l),
(64,2,l),
(64,161,l),
(102,161,l),
(102,76,o),
(145,35,o),
(196,29,c),
(196,-7,l)
);
}
);
width = 426;
}
);
unicode = 115;
},
{
glyphname = t;
lastChange = "2024-03-08 17:01:58 +0000";
layers = (
{
layerId = m01;
shapes = (
{
closed = 1;
nodes = (
(334,64,l),
(324,40,o),
(306,19,o),
(290,10,cs),
(269,-2,o),
(243,-8,o),
(212,-8,cs),
(174,-8,o),
(144,3,o),
(124,21,cs),
(103,41,o),
(92,73,o),
(92,109,cs),
(92,424,l),
(38,424,l),
(38,465,l),
(74,465,o),
(97,500,o),
(102,515,cs),
(107,530,o),
(113,557,o),
(113,579,c),
(180,579,l),
(180,579,o),
(180,465,o),
(95,465,c),
(227,465,l),
(292,465,l),
(292,424,l),
(180,424,l),
(180,148,l),
(180,127,o),
(181,109,o),
(182,96,cs),
(184,82,o),
(188,70,o),
(193,61,cs),
(210,33,o),
(256,29,o),
(282,46,cs),
(290,51,o),
(303,65,o),
(312,79,c)
);
}
);
width = 341;
},
{
layerId = m002;
shapes = (
{
closed = 1;
nodes = (
(334,64,l),
(324,40,o),
(306,19,o),
(290,10,cs),
(269,-2,o),
(243,-8,o),
(212,-8,cs),
(174,-8,o),
(144,3,o),
(124,21,cs),
(103,41,o),
(92,73,o),
(92,109,cs),
(92,424,l),
(38,424,l),
(38,465,l),
(74,465,o),
(92,465,o),
(92,465,cs),
(92,480,o),
(92,557,o),
(92,579,c),
(180,579,l),
(180,579,o),
(180,509,o),
(180,465,c),
(227,465,l),
(292,465,l),
(292,424,l),
(180,424,l),
(180,148,l),
(180,127,o),
(181,109,o),
(182,96,cs),
(184,82,o),
(188,70,o),
(193,61,cs),
(210,33,o),
(256,29,o),
(282,46,cs),
(290,51,o),
(303,65,o),
(312,79,c)
);
}
);
width = 341;
}
);
unicode = 116;
},
{
glyphname = u;
lastChange = "2024-03-08 17:39:38 +0000";
layers = (
{
layerId = m01;
shapes = (
{
closed = 1;
nodes = (
(584,35,l),
(584,0,l),
(438,0,l),
(438,111,l),
(434,111,l),
(412,73,o),
(384,46,o),
(354,28,cs),
(324,10,o),
(292,1,o),
(258,1,cs),
(232,1,o),
(207,5,o),
(183,15,cs),
(159,25,o),
(140,39,o),
(128,55,cs),
(118,69,o),
(109,88,o),
(105,112,cs),
(100,136,o),
(98,167,o),
(98,205,cs),
(98,358,ls),
(98,378,o),
(101,403,o),
(108,420,cs),
(117,442,o),
(140,468,o),
(162,468,c),
(21,468,l),
(21,500,l),
(188,500,l),
(188,248,ls),
(188,180,o),
(196,132,o),
(213,101,cs),
(228,72,o),
(253,56,o),
(288,56,cs),
(342,56,o),
(384,92,o),
(415,163,cs),
(418,170,o),
(430,199,o),
(430,261,c),
(430,339,ls),
(430,361,o),
(432,397,o),
(441,420,cs),
(450,442,o),
(472,468,o),
(494,468,c),
(353,468,l),
(353,500,l),
(520,500,l),
(520,216,l),
(520,188,o),
(520,179,o),
(520,157,c),
(520,135,ls),
(520,117,o),
(518,35,o),
(461,35,c)
);
}
);
width = 606;
},
{
layerId = m002;
shapes = (
{
closed = 1;
nodes = (
(584,35,l),
(584,0,l),
(438,0,l),
(438,111,l),
(434,111,l),
(412,73,o),
(384,46,o),
(354,28,cs),
(324,10,o),
(292,1,o),
(258,1,cs),
(232,1,o),
(207,5,o),
(183,15,cs),
(159,25,o),
(140,39,o),
(128,55,cs),
(118,69,o),
(109,88,o),
(105,112,cs),
(100,136,o),
(98,167,o),
(98,205,cs),
(98,358,ls),
(98,378,o),
(98,396,o),
(98,413,cs),
(98,439,o),
(98,452,o),
(98,468,c),
(21,468,l),
(21,500,l),
(188,500,l),
(188,248,ls),
(188,180,o),
(196,132,o),
(213,101,cs),
(228,72,o),
(253,56,o),
(288,56,cs),
(342,56,o),
(384,92,o),
(415,163,cs),
(418,170,o),
(430,199,o),
(430,261,cs),
(430,339,ls),
(430,361,o),
(430,395,o),
(430,420,cs),
(430,442,o),
(430,468,o),
(430,468,cs),
(353,468,l),
(353,500,l),
(520,500,l),
(520,216,l),
(520,188,o),
(520,179,o),
(520,157,c),
(520,135,ls),
(520,117,o),
(520,69,o),
(520,35,c)
);
}
);
width = 606;
}
);
unicode = 117;
},
{
glyphname = v;
lastChange = "2024-03-08 17:55:06 +0000";
layers = (
{
layerId = m01;
shapes = (
{
closed = 1;
nodes = (
(547,500,l),
(547,467,l),
(539,467,o),
(528,466,o),
(521,461,cs),
(506,451,o),
(497,438,o),
(485,415,cs),
(479,404,o),
(474,391,o),
(469,379,cs),
(464,367,o),
(459,354,o),
(454,343,cs),
(448,330,o),
(445,322,o),
(441,313,cs),
(306,0,l),
(253,0,l),
(112,348,ls),
(69,454,o),
(183,468,o),
(183,468,c),
(6,468,l),
(5,500,l),
(251,500,l),
(251,467,l),
(229,467,o),
(212,467,o),
(201,462,cs),
(190,456,o),
(188,447,o),
(188,435,cs),
(188,425,o),
(190,415,o),
(192,406,c),
(195,396,o),
(198,387,o),
(201,378,c),
(299,110,l),
(303,110,l),
(386,308,ls),
(392,322,o),
(404,350,o),
(409,364,cs),
(443,452,o),
(504,467,o),
(504,467,c),
(363,467,l),
(363,500,l)
);
}
);
width = 565;
},
{
layerId = m002;
shapes = (
{
closed = 1;
nodes = (
(547,500,l),
(547,467,l),
(539,467,o),
(530,467,o),
(521,467,cs),
(513,467,o),
(510,467,o),
(504,467,c),
(500,456,o),
(474,391,o),
(469,379,cs),
(464,367,o),
(459,354,o),
(454,343,cs),
(448,330,o),
(445,322,o),
(441,313,cs),
(306,0,l),
(253,0,l),
(112,348,ls),
(69,454,o),
(63,468,o),
(63,468,c),
(6,468,l),
(5,500,l),
(251,500,l),
(251,467,l),
(229,467,o),
(181,467,o),
(170,467,cs),
(170,467,o),
(178,444,o),
(180,438,cs),
(183,429,o),
(187,418,o),
(191,406,cs),
(194,397,o),
(198,387,o),
(201,378,cs),
(299,110,l),
(303,110,l),
(386,308,ls),
(392,322,o),
(403,350,o),
(409,364,cs),
(445,452,o),
(451,467,o),
(451,467,c),
(363,467,l),
(363,500,l)
);
}
);
width = 565;
}
);
unicode = 118;
},
{
glyphname = w;
lastChange = "2024-03-08 17:58:52 +0000";
layers = (
{
layerId = m01;
shapes = (
{
closed = 1;
nodes = (
(777,500,l),
(777,468,l),
(768,468,o),
(761,467,o),
(753,464,cs),
(747,462,o),
(740,456,o),
(734,447,cs),
(728,440,o),
(722,428,o),
(714,412,cs),
(708,398,o),
(700,378,o),
(690,354,cs),
(546,0,l),
(512,0,l),
(399,342,l),
(395,342,l),
(259,0,l),
(225,0,l),
(115,347,ls),
(80,457,o),
(187,467,o),
(187,467,c),
(12,467,l),
(13,500,l),
(258,500,l),
(258,468,l),
(234,468,o),
(216,465,o),
(207,460,c),
(197,454,o),
(192,445,o),
(192,431,c),
(192,419,o),
(199,389,o),
(202,378,cs),
(265,156,l),
(269,156,l),
(405,500,l),
(433,500,l),
(556,156,l),
(560,156,l),
(616,306,l),
(626,332,o),
(636,358,o),
(639,365,cs),
(674,453,o),
(733,467,o),
(733,467,c),
(592,467,l),
(592,500,l)
);
}
);
width = 791;
},
{
layerId = m002;
shapes = (
{
closed = 1;
nodes = (
(777,500,l),
(777,467,l),
(768,467,o),
(744,467,o),
(736,467,cs),
(736,467,o),
(729,449,o),
(725,439,cs),
(722,431,o),
(717,419,o),
(714,412,cs),
(708,397,o),
(700,378,o),
(690,354,cs),
(546,0,l),
(512,0,l),
(399,342,l),
(395,342,l),
(259,0,l),
(225,0,l),
(115,347,ls),
(80,457,o),
(77,467,o),
(77,467,c),
(12,467,l),
(13,500,l),
(258,500,l),
(258,468,l),
(234,468,o),
(193,468,o),
(177,468,c),
(179,460,o),
(184,442,o),
(186,434,cs),
(189,422,o),
(199,389,o),
(202,378,cs),
(265,156,l),
(269,156,l),
(405,500,l),
(433,500,l),
(556,156,l),
(560,156,l),
(616,306,l),
(626,332,o),
(636,358,o),
(639,365,cs),
(674,453,o),
(679,467,o),
(679,467,c),
(592,467,l),
(592,500,l)
);
}
);
width = 791;
}
);
unicode = 119;
},
{
glyphname = x;
lastChange = "2024-03-08 18:15:13 +0000";
layers = (
{
layerId = m01;
shapes = (
{
closed = 1;
nodes = (
(550,32,l),
(550,0,l),
(336,0,l),
(336,32,l),
(357,32,o),
(370,34,o),
(377,39,cs),
(389,46,o),
(390,59,o),
(379,75,cs),
(372,85,o),
(362,97,o),
(349,114,cs),
(279,201,l),
(225,125,ls),
(208,101,o),
(152,32,o),
(93,32,c),
(235,32,l),
(235,32,o),
(235,30,o),
(235,27,c),
(235,0,l),
(12,0,l),
(12,32,l),
(26,32,o),
(54,34,o),
(66,37,cs),
(77,40,o),
(86,43,o),
(98,50,cs),
(106,55,o),
(118,63,o),
(127,74,cs),
(137,87,o),
(148,101,o),
(160,118,cs),
(247,237,l),
(163,345,ls),
(82,449,o),
(193,466,o),
(169,466,c),
(36,466,l),
(36,500,l),
(240,500,l),
(240,466,l),
(229,464,o),
(226,464,o),
(216,460,cs),
(208,457,o),
(204,450,o),
(204,444,cs),
(204,435,o),
(214,422,o),
(227,405,cs),
(302,307,l),
(342,362,ls),
(412,459,o),
(469,466,o),
(469,466,c),
(358,466,l),
(358,500,l),
(540,500,l),
(540,466,l),
(528,466,o),
(506,464,o),
(496,461,cs),
(489,459,o),
(480,456,o),
(472,450,cs),
(463,444,o),
(457,437,o),
(448,429,cs),
(439,417,o),
(429,406,o),
(417,391,c),
(331,268,l),
(418,161,ls),
(522,33,o),
(399,32,o),
(391,32,c)
);
}
);
width = 561;
},
{
layerId = m002;
shapes = (
{
closed = 1;
nodes = (
(550,32,l),
(550,0,l),
(334,0,l),
(334,32,l),
(357,32,o),
(403,32,o),
(411,32,cs),
(411,32,o),
(391,59,o),
(380,74,cs),
(373,83,o),
(362,97,o),
(349,114,cs),
(279,201,l),
(225,128,ls),
(207,104,o),
(153,32,o),
(153,32,c),
(235,32,l),
(235,32,o),
(235,30,o),
(235,27,c),
(235,0,l),
(36,0,l),
(36,32,l),
(50,32,o),
(43,32,o),
(55,32,cs),
(66,32,o),
(82,32,o),
(95,32,cs),
(95,32,o),
(118,63,o),
(127,74,cs),
(137,87,o),
(148,101,o),
(160,118,cs),
(247,237,l),
(163,345,ls),
(82,449,o),
(69,466,o),
(69,466,c),
(36,466,l),
(36,500,l),
(240,500,l),
(240,466,l),
(247,466,o),
(226,466,o),
(216,466,cs),
(207,466,o),
(180,466,o),
(180,466,cs),
(180,466,o),
(214,422,o),
(227,405,cs),
(302,307,l),
(342,362,ls),
(412,459,o),
(417,466,o),
(417,466,c),
(358,466,l),
(358,500,l),
(540,500,l),
(540,465,l),
(528,465,o),
(506,465,o),
(496,465,cs),
(487,465,o),
(473,465,o),
(473,465,cs),
(473,465,o),
(454,438,o),
(447,429,cs),
(439,417,o),
(429,404,o),
(418,389,cs),
(331,268,l),
(418,161,ls),
(518,39,o),
(524,32,o),
(524,32,c)
);
}
);
width = 561;
}
);
unicode = 120;
},
{
glyphname = y;
lastChange = "2024-03-08 18:23:18 +0000";
layers = (
{
layerId = m01;
shapes = (
{
closed = 1;
nodes = (
(598,500,l),
(598,465,l),
(588,465,o),
(577,464,o),
(569,460,cs),
(561,457,o),
(556,452,o),
(546,442,cs),
(534,430,o),
(526,414,o),
(514,391,cs),
(505,373,o),
(491,343,o),
(476,309,cs),
(270,-156,ls),
(240,-224,o),
(194,-254,o),
(132,-254,cs),
(117,-254,o),
(97,-248,o),
(88,-243,cs),
(72,-233,o),
(61,-217,o),
(61,-195,cs),
(61,-161,o),
(85,-138,o),
(118,-138,cs),
(133,-138,o),
(148,-143,o),
(158,-154,cs),
(164,-161,o),
(168,-170,o),
(171,-177,c),
(212,-165,o),
(227,-130,o),
(250,-82,cs),
(282,-16,l),
(115,344,l),
(63,458,o),
(188,465,o),
(188,465,c),
(4,465,l),
(4,500,l),
(256,500,l),
(256,465,l),
(215,465,o),
(192,458,o),
(192,435,cs),
(192,425,o),
(194,416,o),
(199,398,cs),
(204,382,o),
(213,359,o),
(220,342,cs),
(323,106,l),
(328,106,l),
(416,304,ls),
(424,323,o),
(432,340,o),
(437,353,cs),
(483,465,o),
(543,465,o),
(543,465,c),
(388,465,l),
(388,500,l)
);
}
);
width = 609;
},
{
layerId = m002;
shapes = (
{
closed = 1;
nodes = (
(598,500,l),
(598,465,l),
(588,465,o),
(553,465,o),
(544,465,cs),
(544,465,o),
(540,456,o),
(535,445,cs),
(524,420,o),
(518,406,o),
(510,388,cs),
(502,369,o),
(491,343,o),
(476,309,cs),
(270,-156,ls),
(240,-224,o),
(194,-254,o),
(132,-254,cs),
(117,-254,o),
(97,-248,o),
(88,-243,cs),
(72,-233,o),
(61,-217,o),
(61,-195,cs),
(61,-161,o),
(85,-138,o),
(118,-138,cs),
(133,-138,o),
(148,-143,o),
(158,-154,cs),
(164,-161,o),
(168,-170,o),
(171,-177,c),
(212,-165,o),
(227,-130,o),
(250,-82,cs),
(282,-16,l),
(115,344,l),
(63,458,o),
(60,465,o),
(60,465,c),
(4,465,l),
(4,500,l),
(256,500,l),
(256,465,l),
(215,465,o),
(168,465,o),
(168,465,cs),
(176,446,o),
(190,413,o),
(196,399,cs),
(205,378,o),
(213,359,o),
(220,342,cs),
(323,106,l),
(328,106,l),
(416,304,ls),
(424,323,o),
(432,340,o),
(437,353,cs),
(483,465,o),
(483,465,o),
(483,465,c),
(388,465,l),
(388,500,l)
);
}
);
width = 609;
}
);
unicode = 121;
},
{
glyphname = z;
lastChange = "2024-03-08 18:35:54 +0000";
layers = (
{
layerId = m01;
shapes = (
{
closed = 1;
nodes = (
(487,146,l),
(487,0,l),
(18,0,l),
(18,4,l),
(270,357,ls),
(342,458,o),
(412,461,o),
(412,461,c),
(345,461,l),
(240,461,ls),
(213,461,o),
(191,460,o),
(173,457,cs),
(157,455,o),
(141,450,o),
(131,444,cs),
(120,437,o),
(112,428,o),
(106,416,c),
(101,405,o),
(96,390,o),
(93,369,c),
(63,369,l),
(64,500,l),
(483,500,l),
(483,496,l),
(235,147,ls),
(163,46,o),
(95,43,o),
(95,43,c),
(272,43,ls),
(304,43,o),
(331,44,o),
(352,47,cs),
(372,49,o),
(390,54,o),
(404,62,cs),
(417,69,o),
(428,80,o),
(436,94,cs),
(443,107,o),
(450,124,o),
(456,146,c)
);
}
);
width = 529;
},
{
layerId = m002;
shapes = (
{
closed = 1;
nodes = (
(487,146,l),
(487,0,l),
(18,0,l),
(18,4,l),
(270,357,ls),
(342,458,o),
(344,461,o),
(344,461,c),
(309,461,l),
(240,461,ls),
(213,461,o),
(191,461,o),
(173,461,cs),
(157,461,o),
(117,461,o),
(107,461,cs),
(107,461,o),
(107,429,o),
(107,417,cs),
(107,405,o),
(107,390,o),
(107,369,c),
(63,369,l),
(64,500,l),
(483,500,l),
(483,496,l),
(235,147,ls),
(163,46,o),
(161,43,o),
(161,43,c),
(272,43,ls),
(304,43,o),
(344,43,o),
(365,43,cs),
(385,43,o),
(427,43,o),
(443,43,c),
(443,61,o),
(443,75,o),
(443,94,cs),
(443,109,o),
(443,122,o),
(443,146,c)
);
}
);
width = 529;
}
);
unicode = 122;
},
{
glyphname = period;
lastChange = "2024-03-06 19:35:36 +0000";
layers = (
{
layerId = m01;
shapes = (
{
closed = 1;
nodes = (
(98,-8,o),
(125,-8,qs),
(153,-8,o),
(191,30,o),
(191,57,qs),
(191,85,o),
(153,123,o),
(125,123,qs),
(98,123,o),
(60,85,o),
(60,57,qs),
(60,30,o)
);
}
);
width = 251;
},
{
layerId = m002;
shapes = (
{
closed = 1;
nodes = (
(98,-8,o),
(125,-8,qs),
(153,-8,o),
(191,30,o),
(191,57,qs),
(191,85,o),
(153,123,o),
(125,123,qs),
(98,123,o),
(60,85,o),
(60,57,qs),
(60,30,o)
);
}
);
width = 251;
}
);
unicode = 46;
},
{
glyphname = comma;
lastChange = "2024-03-06 19:35:36 +0000";
layers = (
{
layerId = m01;
shapes = (
{
closed = 1;
nodes = (
(109,-148,o),
(161,-101,o),
(192,-55,o),
(206,-7,o),
(206,21,qs),
(206,121,o),
(134,121,qs),
(104,121,o),
(67,87,o),
(67,59,qs),
(67,33,o),
(96,0,o),
(119,0,qs),
(136,0,o),
(149,8,q),
(149,-35,o),
(103,-105,o),
(49,-143,q),
(72,-175,l)
);
}
